<?xml version="1.0" encoding="UTF-8"?>
<svg xmlns="http://www.w3.org/2000/svg" xmlns:xlink="http://www.w3.org/1999/xlink" width="3750" height="2501.25" viewBox="0 0 3750 2501.25">
<defs>
<linearGradient id="linear-pattern-0" gradientUnits="userSpaceOnUse" x1="0.0588991" y1="0" x2="0.869603" y2="0" gradientTransform="matrix(-4769.89, -242.044, -242.044, 4769.89, 4076.43, 1619.089)">
<stop offset="0" stop-color="rgb(39.053345%, 57.365417%, 85.144043%)" stop-opacity="1"/>
<stop offset="0.0078125" stop-color="rgb(39.149475%, 57.476807%, 85.272217%)" stop-opacity="1"/>
<stop offset="0.015625" stop-color="rgb(39.343262%, 57.699585%, 85.53009%)" stop-opacity="1"/>
<stop offset="0.0234375" stop-color="rgb(39.537048%, 57.922363%, 85.787964%)" stop-opacity="1"/>
<stop offset="0.03125" stop-color="rgb(39.730835%, 58.145142%, 86.045837%)" stop-opacity="1"/>
<stop offset="0.0390625" stop-color="rgb(39.924622%, 58.36792%, 86.303711%)" stop-opacity="1"/>
<stop offset="0.046875" stop-color="rgb(40.116882%, 58.590698%, 86.561584%)" stop-opacity="1"/>
<stop offset="0.0546875" stop-color="rgb(40.310669%, 58.813477%, 86.819458%)" stop-opacity="1"/>
<stop offset="0.0625" stop-color="rgb(40.504456%, 59.036255%, 87.078857%)" stop-opacity="1"/>
<stop offset="0.0703125" stop-color="rgb(40.698242%, 59.259033%, 87.336731%)" stop-opacity="1"/>
<stop offset="0.078125" stop-color="rgb(40.892029%, 59.481812%, 87.594604%)" stop-opacity="1"/>
<stop offset="0.0859375" stop-color="rgb(41.08429%, 59.70459%, 87.852478%)" stop-opacity="1"/>
<stop offset="0.09375" stop-color="rgb(41.278076%, 59.927368%, 88.110352%)" stop-opacity="1"/>
<stop offset="0.101562" stop-color="rgb(41.471863%, 60.151672%, 88.368225%)" stop-opacity="1"/>
<stop offset="0.109375" stop-color="rgb(41.665649%, 60.374451%, 88.626099%)" stop-opacity="1"/>
<stop offset="0.117188" stop-color="rgb(41.859436%, 60.597229%, 88.883972%)" stop-opacity="1"/>
<stop offset="0.125" stop-color="rgb(42.053223%, 60.820007%, 89.141846%)" stop-opacity="1"/>
<stop offset="0.132813" stop-color="rgb(42.245483%, 61.042786%, 89.399719%)" stop-opacity="1"/>
<stop offset="0.140625" stop-color="rgb(42.43927%, 61.265564%, 89.657593%)" stop-opacity="1"/>
<stop offset="0.148438" stop-color="rgb(42.633057%, 61.488342%, 89.916992%)" stop-opacity="1"/>
<stop offset="0.15625" stop-color="rgb(42.826843%, 61.711121%, 90.174866%)" stop-opacity="1"/>
<stop offset="0.164063" stop-color="rgb(43.02063%, 61.933899%, 90.432739%)" stop-opacity="1"/>
<stop offset="0.171875" stop-color="rgb(43.212891%, 62.156677%, 90.690613%)" stop-opacity="1"/>
<stop offset="0.179688" stop-color="rgb(43.406677%, 62.379456%, 90.948486%)" stop-opacity="1"/>
<stop offset="0.1875" stop-color="rgb(43.600464%, 62.602234%, 91.20636%)" stop-opacity="1"/>
<stop offset="0.195312" stop-color="rgb(43.79425%, 62.825012%, 91.464233%)" stop-opacity="1"/>
<stop offset="0.203125" stop-color="rgb(43.988037%, 63.047791%, 91.722107%)" stop-opacity="1"/>
<stop offset="0.210938" stop-color="rgb(44.181824%, 63.270569%, 91.97998%)" stop-opacity="1"/>
<stop offset="0.21875" stop-color="rgb(44.374084%, 63.493347%, 92.237854%)" stop-opacity="1"/>
<stop offset="0.226563" stop-color="rgb(44.567871%, 63.716125%, 92.495728%)" stop-opacity="1"/>
<stop offset="0.234375" stop-color="rgb(44.761658%, 63.938904%, 92.755127%)" stop-opacity="1"/>
<stop offset="0.242188" stop-color="rgb(44.955444%, 64.161682%, 93.013%)" stop-opacity="1"/>
<stop offset="0.25" stop-color="rgb(45.149231%, 64.38446%, 93.270874%)" stop-opacity="1"/>
<stop offset="0.257813" stop-color="rgb(45.341492%, 64.607239%, 93.528748%)" stop-opacity="1"/>
<stop offset="0.265625" stop-color="rgb(45.535278%, 64.830017%, 93.786621%)" stop-opacity="1"/>
<stop offset="0.273438" stop-color="rgb(45.729065%, 65.052795%, 94.044495%)" stop-opacity="1"/>
<stop offset="0.28125" stop-color="rgb(45.922852%, 65.275574%, 94.302368%)" stop-opacity="1"/>
<stop offset="0.289063" stop-color="rgb(46.116638%, 65.498352%, 94.560242%)" stop-opacity="1"/>
<stop offset="0.296875" stop-color="rgb(46.310425%, 65.72113%, 94.818115%)" stop-opacity="1"/>
<stop offset="0.304688" stop-color="rgb(46.502686%, 65.943909%, 95.075989%)" stop-opacity="1"/>
<stop offset="0.3125" stop-color="rgb(46.696472%, 66.166687%, 95.335388%)" stop-opacity="1"/>
<stop offset="0.320312" stop-color="rgb(46.890259%, 66.389465%, 95.593262%)" stop-opacity="1"/>
<stop offset="0.328125" stop-color="rgb(47.084045%, 66.61377%, 95.851135%)" stop-opacity="1"/>
<stop offset="0.335937" stop-color="rgb(47.277832%, 66.836548%, 96.109009%)" stop-opacity="1"/>
<stop offset="0.34375" stop-color="rgb(47.470093%, 67.059326%, 96.366882%)" stop-opacity="1"/>
<stop offset="0.351562" stop-color="rgb(47.663879%, 67.282104%, 96.624756%)" stop-opacity="1"/>
<stop offset="0.359375" stop-color="rgb(47.857666%, 67.504883%, 96.882629%)" stop-opacity="1"/>
<stop offset="0.367188" stop-color="rgb(48.051453%, 67.727661%, 97.140503%)" stop-opacity="1"/>
<stop offset="0.375" stop-color="rgb(48.245239%, 67.950439%, 97.398376%)" stop-opacity="1"/>
<stop offset="0.382812" stop-color="rgb(48.439026%, 68.173218%, 97.65625%)" stop-opacity="1"/>
<stop offset="0.390625" stop-color="rgb(48.631287%, 68.395996%, 97.914124%)" stop-opacity="1"/>
<stop offset="0.398438" stop-color="rgb(48.825073%, 68.618774%, 98.173523%)" stop-opacity="1"/>
<stop offset="0.40625" stop-color="rgb(49.01886%, 68.841553%, 98.431396%)" stop-opacity="1"/>
<stop offset="0.414062" stop-color="rgb(49.212646%, 69.064331%, 98.68927%)" stop-opacity="1"/>
<stop offset="0.421875" stop-color="rgb(49.406433%, 69.287109%, 98.947144%)" stop-opacity="1"/>
<stop offset="0.429688" stop-color="rgb(49.60022%, 69.509888%, 99.205017%)" stop-opacity="1"/>
<stop offset="0.4375" stop-color="rgb(49.79248%, 69.732666%, 99.462891%)" stop-opacity="1"/>
<stop offset="0.46875" stop-color="rgb(49.8703%, 69.821167%, 99.565125%)" stop-opacity="1"/>
<stop offset="0.484375" stop-color="rgb(49.708557%, 69.633484%, 99.349976%)" stop-opacity="1"/>
<stop offset="0.5" stop-color="rgb(49.423218%, 69.306946%, 98.970032%)" stop-opacity="1"/>
<stop offset="0.515625" stop-color="rgb(49.139404%, 68.978882%, 98.591614%)" stop-opacity="1"/>
<stop offset="0.53125" stop-color="rgb(48.855591%, 68.652344%, 98.21167%)" stop-opacity="1"/>
<stop offset="0.546875" stop-color="rgb(48.570251%, 68.32428%, 97.833252%)" stop-opacity="1"/>
<stop offset="0.5625" stop-color="rgb(48.286438%, 67.996216%, 97.453308%)" stop-opacity="1"/>
<stop offset="0.578125" stop-color="rgb(48.002625%, 67.669678%, 97.07489%)" stop-opacity="1"/>
<stop offset="0.59375" stop-color="rgb(47.717285%, 67.341614%, 96.694946%)" stop-opacity="1"/>
<stop offset="0.609375" stop-color="rgb(47.433472%, 67.015076%, 96.316528%)" stop-opacity="1"/>
<stop offset="0.625" stop-color="rgb(47.148132%, 66.687012%, 95.936584%)" stop-opacity="1"/>
<stop offset="0.640625" stop-color="rgb(46.864319%, 66.358948%, 95.558167%)" stop-opacity="1"/>
<stop offset="0.65625" stop-color="rgb(46.580505%, 66.03241%, 95.178223%)" stop-opacity="1"/>
<stop offset="0.671875" stop-color="rgb(46.295166%, 65.704346%, 94.799805%)" stop-opacity="1"/>
<stop offset="0.6875" stop-color="rgb(46.011353%, 65.377808%, 94.419861%)" stop-opacity="1"/>
<stop offset="0.703125" stop-color="rgb(45.727539%, 65.049744%, 94.041443%)" stop-opacity="1"/>
<stop offset="0.71875" stop-color="rgb(45.4422%, 64.72168%, 93.661499%)" stop-opacity="1"/>
<stop offset="0.734375" stop-color="rgb(45.158386%, 64.395142%, 93.283081%)" stop-opacity="1"/>
<stop offset="0.75" stop-color="rgb(44.873047%, 64.067078%, 92.903137%)" stop-opacity="1"/>
<stop offset="0.765625" stop-color="rgb(44.589233%, 63.739014%, 92.524719%)" stop-opacity="1"/>
<stop offset="0.78125" stop-color="rgb(44.30542%, 63.412476%, 92.144775%)" stop-opacity="1"/>
<stop offset="0.796875" stop-color="rgb(44.020081%, 63.084412%, 91.766357%)" stop-opacity="1"/>
<stop offset="0.8125" stop-color="rgb(43.736267%, 62.757874%, 91.386414%)" stop-opacity="1"/>
<stop offset="0.828125" stop-color="rgb(43.452454%, 62.42981%, 91.007996%)" stop-opacity="1"/>
<stop offset="0.84375" stop-color="rgb(43.167114%, 62.101746%, 90.628052%)" stop-opacity="1"/>
<stop offset="0.859375" stop-color="rgb(42.883301%, 61.775208%, 90.249634%)" stop-opacity="1"/>
<stop offset="0.875" stop-color="rgb(42.597961%, 61.447144%, 89.86969%)" stop-opacity="1"/>
<stop offset="0.890625" stop-color="rgb(42.314148%, 61.120605%, 89.491272%)" stop-opacity="1"/>
<stop offset="0.90625" stop-color="rgb(42.030334%, 60.792542%, 89.111328%)" stop-opacity="1"/>
<stop offset="0.921875" stop-color="rgb(41.744995%, 60.464478%, 88.73291%)" stop-opacity="1"/>
<stop offset="0.9375" stop-color="rgb(41.461182%, 60.137939%, 88.352966%)" stop-opacity="1"/>
<stop offset="0.953125" stop-color="rgb(41.177368%, 59.809875%, 87.974548%)" stop-opacity="1"/>
<stop offset="0.96875" stop-color="rgb(40.892029%, 59.483337%, 87.594604%)" stop-opacity="1"/>
<stop offset="0.984375" stop-color="rgb(40.608215%, 59.155273%, 87.216187%)" stop-opacity="1"/>
<stop offset="1" stop-color="rgb(40.322876%, 58.827209%, 86.836243%)" stop-opacity="1"/>
</linearGradient>
<clipPath id="clip-0">
<path clip-rule="nonzero" d="M 1607 797 L 2239 797 L 2239 2063 L 1607 2063 Z M 1607 797 "/>
</clipPath>
<clipPath id="clip-1">
<path clip-rule="nonzero" d="M 2177.101562 797.898438 L 1669 797.898438 C 1634.710938 797.898438 1607.109375 831.359375 1607.109375 872.910156 L 1607.109375 1987.207031 C 1607.109375 2028.761719 1634.710938 2062.21875 1669 2062.21875 L 2177.101562 2062.21875 C 2211.378906 2062.21875 2238.980469 2028.761719 2238.980469 1987.207031 L 2238.980469 872.910156 C 2238.980469 831.359375 2211.378906 797.898438 2177.101562 797.898438 "/>
</clipPath>
<linearGradient id="linear-pattern-1" gradientUnits="userSpaceOnUse" x1="0.157436" y1="0" x2="0.908871" y2="0" gradientTransform="matrix(-742.861, -1724.76, -1724.76, 742.861, 2291.18, 2361.648)">
<stop offset="0" stop-color="rgb(74.887085%, 74.887085%, 74.887085%)" stop-opacity="1"/>
<stop offset="0.015625" stop-color="rgb(75.062561%, 75.062561%, 75.062561%)" stop-opacity="1"/>
<stop offset="0.03125" stop-color="rgb(75.411987%, 75.411987%, 75.411987%)" stop-opacity="1"/>
<stop offset="0.046875" stop-color="rgb(75.761414%, 75.761414%, 75.761414%)" stop-opacity="1"/>
<stop offset="0.0625" stop-color="rgb(76.112366%, 76.112366%, 76.112366%)" stop-opacity="1"/>
<stop offset="0.078125" stop-color="rgb(76.461792%, 76.461792%, 76.461792%)" stop-opacity="1"/>
<stop offset="0.09375" stop-color="rgb(76.811218%, 76.811218%, 76.811218%)" stop-opacity="1"/>
<stop offset="0.109375" stop-color="rgb(77.16217%, 77.16217%, 77.16217%)" stop-opacity="1"/>
<stop offset="0.125" stop-color="rgb(77.511597%, 77.511597%, 77.511597%)" stop-opacity="1"/>
<stop offset="0.140625" stop-color="rgb(77.861023%, 77.861023%, 77.861023%)" stop-opacity="1"/>
<stop offset="0.15625" stop-color="rgb(78.211975%, 78.211975%, 78.211975%)" stop-opacity="1"/>
<stop offset="0.171875" stop-color="rgb(78.561401%, 78.561401%, 78.561401%)" stop-opacity="1"/>
<stop offset="0.1875" stop-color="rgb(78.910828%, 78.910828%, 78.910828%)" stop-opacity="1"/>
<stop offset="0.203125" stop-color="rgb(79.26178%, 79.26178%, 79.26178%)" stop-opacity="1"/>
<stop offset="0.21875" stop-color="rgb(79.611206%, 79.611206%, 79.611206%)" stop-opacity="1"/>
<stop offset="0.234375" stop-color="rgb(79.960632%, 79.960632%, 79.960632%)" stop-opacity="1"/>
<stop offset="0.25" stop-color="rgb(80.311584%, 80.311584%, 80.311584%)" stop-opacity="1"/>
<stop offset="0.265625" stop-color="rgb(80.661011%, 80.661011%, 80.661011%)" stop-opacity="1"/>
<stop offset="0.28125" stop-color="rgb(81.010437%, 81.010437%, 81.010437%)" stop-opacity="1"/>
<stop offset="0.296875" stop-color="rgb(81.361389%, 81.361389%, 81.361389%)" stop-opacity="1"/>
<stop offset="0.3125" stop-color="rgb(81.710815%, 81.710815%, 81.710815%)" stop-opacity="1"/>
<stop offset="0.328125" stop-color="rgb(82.060242%, 82.060242%, 82.060242%)" stop-opacity="1"/>
<stop offset="0.34375" stop-color="rgb(82.411194%, 82.411194%, 82.411194%)" stop-opacity="1"/>
<stop offset="0.359375" stop-color="rgb(82.76062%, 82.76062%, 82.76062%)" stop-opacity="1"/>
<stop offset="0.375" stop-color="rgb(83.110046%, 83.110046%, 83.110046%)" stop-opacity="1"/>
<stop offset="0.390625" stop-color="rgb(83.460999%, 83.460999%, 83.460999%)" stop-opacity="1"/>
<stop offset="0.40625" stop-color="rgb(83.810425%, 83.810425%, 83.810425%)" stop-opacity="1"/>
<stop offset="0.421875" stop-color="rgb(84.159851%, 84.159851%, 84.159851%)" stop-opacity="1"/>
<stop offset="0.4375" stop-color="rgb(84.510803%, 84.510803%, 84.510803%)" stop-opacity="1"/>
<stop offset="0.453125" stop-color="rgb(84.860229%, 84.860229%, 84.860229%)" stop-opacity="1"/>
<stop offset="0.46875" stop-color="rgb(85.209656%, 85.209656%, 85.209656%)" stop-opacity="1"/>
<stop offset="0.484375" stop-color="rgb(85.560608%, 85.560608%, 85.560608%)" stop-opacity="1"/>
<stop offset="0.5" stop-color="rgb(85.910034%, 85.910034%, 85.910034%)" stop-opacity="1"/>
<stop offset="0.515625" stop-color="rgb(86.25946%, 86.25946%, 86.25946%)" stop-opacity="1"/>
<stop offset="0.53125" stop-color="rgb(86.610413%, 86.610413%, 86.610413%)" stop-opacity="1"/>
<stop offset="0.546875" stop-color="rgb(86.959839%, 86.959839%, 86.959839%)" stop-opacity="1"/>
<stop offset="0.5625" stop-color="rgb(87.309265%, 87.309265%, 87.309265%)" stop-opacity="1"/>
<stop offset="0.578125" stop-color="rgb(87.660217%, 87.660217%, 87.660217%)" stop-opacity="1"/>
<stop offset="0.59375" stop-color="rgb(88.009644%, 88.009644%, 88.009644%)" stop-opacity="1"/>
<stop offset="0.609375" stop-color="rgb(88.35907%, 88.35907%, 88.35907%)" stop-opacity="1"/>
<stop offset="0.625" stop-color="rgb(88.710022%, 88.710022%, 88.710022%)" stop-opacity="1"/>
<stop offset="0.640625" stop-color="rgb(89.059448%, 89.059448%, 89.059448%)" stop-opacity="1"/>
<stop offset="0.65625" stop-color="rgb(89.408875%, 89.408875%, 89.408875%)" stop-opacity="1"/>
<stop offset="0.671875" stop-color="rgb(89.759827%, 89.759827%, 89.759827%)" stop-opacity="1"/>
<stop offset="0.6875" stop-color="rgb(90.109253%, 90.109253%, 90.109253%)" stop-opacity="1"/>
<stop offset="0.703125" stop-color="rgb(90.458679%, 90.458679%, 90.458679%)" stop-opacity="1"/>
<stop offset="0.71875" stop-color="rgb(90.809631%, 90.809631%, 90.809631%)" stop-opacity="1"/>
<stop offset="0.734375" stop-color="rgb(91.159058%, 91.159058%, 91.159058%)" stop-opacity="1"/>
<stop offset="0.75" stop-color="rgb(91.508484%, 91.508484%, 91.508484%)" stop-opacity="1"/>
<stop offset="0.765625" stop-color="rgb(91.859436%, 91.859436%, 91.859436%)" stop-opacity="1"/>
<stop offset="0.78125" stop-color="rgb(92.208862%, 92.208862%, 92.208862%)" stop-opacity="1"/>
<stop offset="0.796875" stop-color="rgb(92.558289%, 92.558289%, 92.558289%)" stop-opacity="1"/>
<stop offset="0.8125" stop-color="rgb(92.909241%, 92.909241%, 92.909241%)" stop-opacity="1"/>
<stop offset="0.828125" stop-color="rgb(93.258667%, 93.258667%, 93.258667%)" stop-opacity="1"/>
<stop offset="0.84375" stop-color="rgb(93.608093%, 93.608093%, 93.608093%)" stop-opacity="1"/>
<stop offset="0.859375" stop-color="rgb(93.959045%, 93.959045%, 93.959045%)" stop-opacity="1"/>
<stop offset="0.875" stop-color="rgb(94.308472%, 94.308472%, 94.308472%)" stop-opacity="1"/>
<stop offset="0.890625" stop-color="rgb(94.657898%, 94.657898%, 94.657898%)" stop-opacity="1"/>
<stop offset="0.90625" stop-color="rgb(95.00885%, 95.00885%, 95.00885%)" stop-opacity="1"/>
<stop offset="0.921875" stop-color="rgb(95.358276%, 95.358276%, 95.358276%)" stop-opacity="1"/>
<stop offset="0.9375" stop-color="rgb(95.707703%, 95.707703%, 95.707703%)" stop-opacity="1"/>
<stop offset="0.953125" stop-color="rgb(96.058655%, 96.058655%, 96.058655%)" stop-opacity="1"/>
<stop offset="0.96875" stop-color="rgb(96.408081%, 96.408081%, 96.408081%)" stop-opacity="1"/>
<stop offset="0.984375" stop-color="rgb(96.757507%, 96.757507%, 96.757507%)" stop-opacity="1"/>
<stop offset="1" stop-color="rgb(97.108459%, 97.108459%, 97.108459%)" stop-opacity="1"/>
</linearGradient>
</defs>
<path fill-rule="nonzero" fill="url(#linear-pattern-0)" d="M 3876.597656 6.425781 L 3740.367188 2691.050781 L -126.597656 2494.824219 L 9.632812 -189.800781 Z M 3876.597656 6.425781 "/>
<path fill="none" stroke-width="25.2603" stroke-linecap="butt" stroke-linejoin="miter" stroke="rgb(0%, 13.330078%, 33.325195%)" stroke-opacity="1" stroke-dasharray="101.041 202.083" stroke-miterlimit="4" d="M 20535.898438 4913.984375 C 19496.71875 4660.195312 18457.5 4406.40625 17573.28125 4311.367188 C 16689.101562 4216.289062 15959.882812 4280 15428.90625 4540.273438 C 14897.8125 4800.546875 14564.804688 5257.421875 14548.398438 5585.507812 C 14532.109375 5913.632812 14832.382812 6113.007812 15082.382812 6144.765625 C 15332.304688 6176.5625 15531.914062 6040.78125 15623.710938 5881.757812 C 15715.507812 5722.734375 15699.609375 5540.46875 15580.898438 5363.710938 C 15462.1875 5187.03125 15240.78125 5015.898438 14887.382812 4946.015625 C 14533.90625 4876.09375 14048.515625 4907.382812 13522.1875 5226.71875 C 12996.015625 5546.054688 12428.984375 6153.4375 12314.804688 6945.195312 C 12200.703125 7736.953125 12539.414062 8713.164062 13141.210938 9597.1875 C 13743.007812 10481.210938 14607.8125 11273.085938 15890 11636.09375 C 17172.304688 11999.101562 18872.109375 11933.203125 20092.109375 12083.710938 C 24088.007812 12823.203125 24790.195312 16161.289062 18929.882812 15254.101562 C 18301.210938 15365 14520.117188 14948.203125 13773.007812 18567.695312 " transform="matrix(0.1, 0, 0, -0.1, 0, 2501.25)"/>
<path fill-rule="nonzero" fill="rgb(37.255859%, 82.8125%, 73.631287%)" fill-opacity="1" d="M 2532.019531 1543.074219 L 2314.410156 1689.296875 L 2337.710938 1755.832031 L 2282.398438 1818.859375 L 2188.21875 1774.089844 L 2180.949219 1234.011719 L 2524.738281 1003 L 2618.921875 1047.769531 L 2526.980469 1168.980469 L 2532.019531 1543.074219 "/>
<path fill-rule="nonzero" fill="rgb(52.929688%, 87.109375%, 80.46875%)" fill-opacity="1" d="M 2282.398438 1818.859375 L 2626.191406 1587.847656 L 2618.921875 1047.769531 L 2275.128906 1278.78125 L 2282.398438 1818.859375 "/>
<path fill-rule="nonzero" fill="rgb(94.921875%, 94.921875%, 94.921875%)" fill-opacity="1" d="M 2273.609375 1279.78125 C 2247.941406 1267.570312 2216.789062 1251.039062 2191.121094 1238.839844 L 2523.109375 1013.929688 C 2548.789062 1026.140625 2581.519531 1041.789062 2607.191406 1054 L 2273.609375 1279.78125 "/>
<path fill-rule="nonzero" fill="rgb(100%, 100%, 100%)" fill-opacity="1" d="M 2189.511719 1238.070312 L 2197.320312 1778.410156 L 2282.398438 1818.855469 L 2275.128906 1278.78125 L 2180.949219 1234 L 2189.511719 1238.070312 "/>
<path fill-rule="nonzero" fill="rgb(68.554688%, 91.40625%, 86.71875%)" fill-opacity="1" d="M 2552.140625 1060.398438 L 2501 1092.839844 L 2470.308594 1079.109375 L 2510.429688 1066.191406 L 2519.171875 1045.351562 L 2552.140625 1060.398438 "/>
<path fill-rule="nonzero" fill="rgb(78.514099%, 66.992188%, 21.556091%)" fill-opacity="1" d="M 2679.289062 1809.445312 L 2460.878906 1950.0625 L 2482.980469 2017.730469 L 2427.050781 2079.5 L 2334.230469 2031.605469 L 2335.5 1487.820312 L 2680.558594 1265.660156 L 2773.390625 1313.558594 L 2680.171875 1432.789062 L 2679.289062 1809.445312 "/>
<path fill-rule="nonzero" fill="rgb(87.109375%, 80.46875%, 52.929688%)" fill-opacity="1" d="M 2427.050781 2079.5 L 2772.109375 1857.339844 L 2773.390625 1313.550781 L 2428.328125 1535.710938 L 2427.050781 2079.5 "/>
<path fill-rule="nonzero" fill="rgb(94.921875%, 94.921875%, 94.921875%)" fill-opacity="1" d="M 2426.808594 1536.671875 C 2401.5 1523.613281 2370.828125 1506.042969 2345.53125 1492.980469 L 2678.769531 1276.621094 C 2704.070312 1289.679688 2736.328125 1306.421875 2761.628906 1319.480469 L 2426.808594 1536.671875 "/>
<path fill-rule="nonzero" fill="rgb(100%, 100%, 100%)" fill-opacity="1" d="M 2343.941406 1492.171875 L 2343.199219 2036.230469 L 2427.050781 2079.5 L 2428.328125 1535.714844 L 2335.5 1487.820312 L 2343.941406 1492.171875 "/>
<path fill-rule="nonzero" fill="rgb(16.479492%, 49.804688%, 100%)" fill-opacity="1" d="M 2532.019531 1543.074219 L 2313.140625 1689.296875 L 2336.449219 1755.832031 L 2281.140625 1818.859375 L 2178.128906 1774.089844 L 2180.949219 1234.011719 L 2524.738281 1003 L 2618.921875 1047.769531 L 2526.980469 1168.980469 L 2532.019531 1543.074219 "/>
<path fill-rule="nonzero" fill="rgb(33.325195%, 59.959412%, 100%)" fill-opacity="1" d="M 2282.398438 1818.859375 L 2626.191406 1587.847656 L 2618.921875 1047.769531 L 2275.128906 1278.78125 L 2282.398438 1818.859375 "/>
<path fill-rule="nonzero" fill="rgb(94.921875%, 94.921875%, 94.921875%)" fill-opacity="1" d="M 2273.609375 1279.78125 C 2247.941406 1267.570312 2216.789062 1251.039062 2191.121094 1238.839844 L 2523.109375 1013.929688 C 2548.789062 1026.140625 2581.519531 1041.789062 2607.191406 1054 L 2273.609375 1279.78125 "/>
<path fill-rule="nonzero" fill="rgb(100%, 100%, 100%)" fill-opacity="1" d="M 2189.511719 1238.070312 L 2186.839844 1774.625 L 2282.398438 1815.074219 L 2275.128906 1278.78125 L 2180.949219 1234 L 2189.511719 1238.070312 "/>
<path fill-rule="nonzero" fill="rgb(33.325195%, 59.959412%, 100%)" fill-opacity="1" d="M 2552.140625 1060.398438 L 2501 1092.839844 L 2470.308594 1079.109375 L 2510.429688 1066.191406 L 2519.171875 1045.351562 L 2552.140625 1060.398438 "/>
<path fill-rule="nonzero" fill="rgb(92.576599%, 63.084412%, 30.979919%)" fill-opacity="1" d="M 2635.441406 1659.46875 L 2641.789062 1250.589844 L 2665.019531 1258.191406 L 2696.730469 1182.960938 L 2643.441406 1144.828125 L 2253.320312 1415.46875 L 2252 1930.113281 L 2306.578125 1968.25 L 2312.179688 1883.730469 L 2635.441406 1659.46875 "/>
<path fill-rule="nonzero" fill="rgb(93.75%, 73.242188%, 18.041992%)" fill-opacity="1" d="M 2696.730469 1182.960938 L 2688.730469 1697.605469 L 2306.578125 1968.25 L 2306.609375 1453.609375 L 2696.730469 1182.960938 "/>
<path fill-rule="nonzero" fill="rgb(100%, 100%, 100%)" fill-opacity="1" d="M 2305.300781 1963.203125 L 2306.609375 1453.609375 L 2261.261719 1420.738281 L 2257.398438 1930.554688 L 2305.300781 1963.203125 "/>
<path fill-rule="nonzero" fill="rgb(62.693787%, 17.259216%, 35.301208%)" fill-opacity="1" d="M 2679.289062 1809.445312 L 2460.878906 1950.0625 L 2482.980469 2017.730469 L 2427.050781 2079.5 L 2334.230469 2031.605469 L 2335.5 1487.820312 L 2680.558594 1265.660156 L 2773.390625 1313.558594 L 2680.171875 1432.789062 L 2679.289062 1809.445312 "/>
<path fill-rule="nonzero" fill="rgb(82.8125%, 37.255859%, 37.255859%)" fill-opacity="1" d="M 2427.050781 2079.5 L 2772.109375 1857.339844 L 2773.390625 1313.550781 L 2428.328125 1535.710938 L 2427.050781 2079.5 "/>
<path fill-rule="nonzero" fill="rgb(94.921875%, 94.921875%, 94.921875%)" fill-opacity="1" d="M 2426.808594 1536.671875 C 2401.5 1523.613281 2370.828125 1506.042969 2345.53125 1492.980469 L 2678.769531 1276.621094 C 2704.070312 1289.679688 2736.328125 1306.421875 2761.628906 1319.480469 L 2426.808594 1536.671875 "/>
<path fill-rule="nonzero" fill="rgb(100%, 100%, 100%)" fill-opacity="1" d="M 2343.941406 1492.171875 L 2343.199219 2031.183594 L 2427.050781 2074.453125 L 2428.328125 1535.714844 L 2335.5 1487.820312 L 2343.941406 1492.171875 "/>
<path fill-rule="nonzero" fill="rgb(78.514099%, 21.556091%, 21.556091%)" fill-opacity="1" d="M 2705.070312 1323.398438 L 2653.761719 1354.511719 L 2623.5 1339.769531 L 2663.550781 1327.96875 L 2672.558594 1307.261719 L 2705.070312 1323.398438 "/>
<path fill-rule="nonzero" fill="rgb(92.576599%, 63.084412%, 30.979919%)" fill-opacity="1" d="M 2290.769531 1526.242188 L 2292.179688 1477.738281 L 2267.421875 1458.449219 L 2277.980469 1499.300781 L 2266.910156 1513.910156 L 2290.769531 1526.242188 "/>
<path fill-rule="nonzero" fill="rgb(82.8125%, 37.255859%, 37.255859%)" fill-opacity="1" d="M 2189.679688 784.71875 L 1658.609375 784.71875 C 1622.78125 784.71875 1593.929688 818.871094 1593.929688 861.289062 L 1593.929688 1998.824219 C 1593.929688 2041.246094 1622.78125 2075.402344 1658.609375 2075.402344 L 2189.679688 2075.402344 C 2225.511719 2075.402344 2254.359375 2041.246094 2254.359375 1998.824219 L 2254.359375 861.289062 C 2254.359375 818.871094 2225.511719 784.71875 2189.679688 784.71875 "/>
<g clip-path="url(#clip-0)">
<g clip-path="url(#clip-1)">
<path fill-rule="nonzero" fill="url(#linear-pattern-1)" d="M 2698.316406 1864.378906 L 1705.984375 2291.78125 L 1147.773438 995.738281 L 2140.105469 568.335938 Z M 2698.316406 1864.378906 "/>
</g>
</g>
<path fill-rule="nonzero" fill="rgb(97.65625%, 97.65625%, 97.65625%)" fill-opacity="1" d="M 2163.261719 815.429688 L 1682.839844 815.429688 C 1650.421875 815.429688 1624.320312 847.960938 1624.320312 888.359375 L 1624.320312 1971.757812 C 1624.320312 2012.160156 1650.421875 2044.6875 1682.839844 2044.6875 L 2163.261719 2044.6875 C 2195.679688 2044.6875 2221.769531 2012.160156 2221.769531 1971.757812 L 2221.769531 888.359375 C 2221.769531 847.960938 2195.679688 815.429688 2163.261719 815.429688 "/>
<path fill-rule="nonzero" fill="rgb(16.479492%, 49.804688%, 100%)" fill-opacity="1" d="M 2065.5 2070.933594 C 2065.421875 2070.722656 2065.390625 2070.496094 2065.378906 2070.28125 L 2065.378906 2066.890625 L 2065.589844 2033.871094 C 2065.609375 2029.183594 2085.21875 2025.53125 2109.53125 2025.683594 L 2114.371094 2025.707031 C 2116.820312 2025.734375 2119.210938 2025.765625 2121.539062 2025.863281 L 2121.539062 2025.753906 L 2214.160156 2026.332031 L 2306.78125 2026.914062 L 2399.398438 2027.496094 L 2492.03125 2028.074219 L 2584.648438 2028.65625 L 2677.269531 2029.238281 L 2676.929688 2082.570312 L 2584.308594 2081.988281 L 2491.691406 2081.410156 L 2306.449219 2080.246094 L 2213.828125 2079.667969 L 2121.210938 2079.085938 L 2121.210938 2078.972656 C 2118.878906 2079.03125 2116.488281 2079.058594 2114.050781 2079.039062 L 2109.199219 2079.015625 C 2086.03125 2078.871094 2067.179688 2075.324219 2065.488281 2070.929688 "/>
<path fill-rule="nonzero" fill="rgb(91.40625%, 86.71875%, 68.554688%)" fill-opacity="1" d="M 2677.28125 2029.246094 L 2676.949219 2082.578125 L 2810.171875 2056.746094 Z M 2677.28125 2029.246094 "/>
<path fill-rule="nonzero" fill="rgb(4.315186%, 9.008789%, 15.696716%)" fill-opacity="1" d="M 2810.179688 2056.746094 L 2783.121094 2061.929688 L 2783.179688 2051.210938 Z M 2810.179688 2056.746094 "/>
<path fill-rule="nonzero" fill="rgb(4.315186%, 9.008789%, 15.696716%)" fill-opacity="1" d="M 2810.179688 2056.746094 L 2783.121094 2061.929688 L 2783.488281 2059.222656 L 2810.179688 2056.746094 "/>
<path fill-rule="nonzero" fill="rgb(4.315186%, 9.008789%, 15.696716%)" fill-opacity="1" d="M 2810.171875 2056.851562 L 2783.488281 2059.222656 L 2783.359375 2054.015625 Z M 2810.171875 2056.851562 "/>
<path fill-rule="nonzero" fill="rgb(78.514099%, 21.556091%, 21.556091%)" fill-opacity="1" d="M 1745.5 1864.472656 L 1693.589844 1864.472656 C 1691.359375 1864.472656 1689.558594 1866.269531 1689.558594 1868.503906 L 1689.558594 1980.054688 C 1689.558594 1982.289062 1691.359375 1984.085938 1693.589844 1984.085938 L 1745.5 1984.085938 C 1747.738281 1984.085938 1749.539062 1982.289062 1749.539062 1980.054688 L 1749.539062 1868.503906 C 1749.539062 1866.269531 1747.738281 1864.472656 1745.5 1864.472656 "/>
<path fill-rule="nonzero" fill="rgb(100%, 100%, 100%)" fill-opacity="1" d="M 1805.480469 1864.472656 L 1753.570312 1864.472656 C 1751.328125 1864.472656 1749.539062 1866.269531 1749.539062 1868.503906 L 1749.539062 1980.054688 C 1749.539062 1982.289062 1751.328125 1984.085938 1753.570312 1984.085938 L 1805.480469 1984.085938 C 1807.710938 1984.085938 1809.511719 1982.289062 1809.511719 1980.054688 L 1809.511719 1868.503906 C 1809.511719 1866.269531 1807.710938 1864.472656 1805.480469 1864.472656 "/>
<path fill-rule="nonzero" fill="rgb(0%, 19.993591%, 50.193787%)" fill-opacity="1" d="M 1865.460938 1864.472656 L 1813.539062 1864.472656 C 1811.308594 1864.472656 1809.511719 1866.269531 1809.511719 1868.503906 L 1809.511719 1980.054688 C 1809.511719 1982.289062 1811.308594 1984.085938 1813.539062 1984.085938 L 1865.460938 1984.085938 C 1867.691406 1984.085938 1869.488281 1982.289062 1869.488281 1980.054688 L 1869.488281 1868.503906 C 1869.488281 1866.269531 1867.691406 1864.472656 1865.460938 1864.472656 "/>
<path fill-rule="nonzero" fill="rgb(78.514099%, 21.556091%, 21.556091%)" fill-opacity="1" d="M 1855.191406 1419.660156 L 1686.960938 1419.660156 C 1684.730469 1419.660156 1682.929688 1421.460938 1682.929688 1423.691406 L 1682.929688 1535.238281 C 1682.929688 1537.472656 1684.730469 1539.273438 1686.960938 1539.273438 L 1855.191406 1539.273438 C 1857.429688 1539.273438 1859.21875 1537.472656 1859.21875 1535.238281 L 1859.21875 1423.691406 C 1859.21875 1421.460938 1857.429688 1419.660156 1855.191406 1419.660156 "/>
<path fill-rule="nonzero" fill="rgb(92.576599%, 63.084412%, 30.979919%)" fill-opacity="1" d="M 1857.828125 1458.730469 L 1684.328125 1458.730469 C 1683.558594 1458.730469 1682.929688 1459.359375 1682.929688 1460.128906 L 1682.929688 1498.800781 C 1682.929688 1499.570312 1683.550781 1500.199219 1684.328125 1500.199219 L 1857.828125 1500.199219 C 1858.601562 1500.199219 1859.21875 1499.570312 1859.21875 1498.800781 L 1859.21875 1460.128906 C 1859.21875 1459.359375 1858.601562 1458.730469 1857.828125 1458.730469 "/>
<path fill-rule="nonzero" fill="rgb(16.479492%, 49.804688%, 100%)" fill-opacity="1" d="M 1688.449219 1642.414062 L 1856.679688 1642.414062 C 1858.910156 1642.414062 1860.710938 1644.214844 1860.710938 1646.445312 L 1860.710938 1757.996094 C 1860.710938 1760.230469 1858.910156 1762.027344 1856.679688 1762.027344 L 1688.449219 1762.027344 C 1686.210938 1762.027344 1684.421875 1760.230469 1684.421875 1757.996094 L 1684.421875 1646.445312 C 1684.421875 1644.214844 1686.210938 1642.414062 1688.449219 1642.414062 "/>
<path fill-rule="nonzero" fill="rgb(100%, 100%, 100%)" fill-opacity="1" d="M 1683.601562 1641.507812 L 1683.601562 1661.070312 L 1864.910156 1764.875 C 1865.179688 1765.03125 1865.558594 1764.953125 1865.761719 1764.703125 L 1867.378906 1762.578125 L 1867.378906 1746.722656 L 1683.601562 1641.507812 "/>
<path fill-rule="nonzero" fill="rgb(100%, 100%, 100%)" fill-opacity="1" d="M 1866.609375 1637.699219 C 1866.53125 1637.703125 1866.460938 1637.726562 1866.390625 1637.769531 L 1683.601562 1744.191406 L 1683.601562 1763.835938 L 1867.371094 1656.847656 L 1867.371094 1638.636719 L 1867.109375 1638.015625 C 1867.019531 1637.792969 1866.820312 1637.675781 1866.609375 1637.699219 "/>
<path fill-rule="nonzero" fill="rgb(82.8125%, 37.255859%, 37.255859%)" fill-opacity="1" d="M 1759.539062 1643.425781 C 1758.910156 1643.425781 1758.390625 1643.9375 1758.390625 1644.578125 L 1758.390625 1686.988281 L 1685.441406 1686.988281 C 1684.878906 1686.988281 1684.421875 1687.445312 1684.421875 1688.015625 L 1684.421875 1716.429688 C 1684.421875 1716.996094 1684.871094 1717.453125 1685.441406 1717.453125 L 1758.390625 1717.453125 L 1758.390625 1761.886719 C 1758.390625 1762.527344 1758.910156 1763.039062 1759.539062 1763.039062 L 1791.429688 1763.039062 C 1792.070312 1763.039062 1792.589844 1762.523438 1792.589844 1761.886719 L 1792.589844 1717.453125 L 1859.679688 1717.453125 C 1860.25 1717.453125 1860.710938 1717 1860.710938 1716.429688 L 1860.710938 1688.015625 C 1860.710938 1687.445312 1860.25 1686.988281 1859.679688 1686.988281 L 1792.589844 1686.988281 L 1792.589844 1644.578125 C 1792.589844 1643.9375 1792.070312 1643.425781 1791.429688 1643.425781 L 1759.539062 1643.425781 "/>
<path fill="none" stroke-width="60.1414" stroke-linecap="round" stroke-linejoin="round" stroke="rgb(100%, 100%, 100%)" stroke-opacity="1" stroke-miterlimit="4" d="M 17595.390625 8578.242188 C 17589.101562 8578.242188 17583.90625 8573.125 17583.90625 8566.71875 L 17583.90625 8142.617188 L 16854.414062 8142.617188 C 16848.789062 8142.617188 16844.21875 8138.046875 16844.21875 8132.34375 L 16844.21875 7848.203125 C 16844.21875 7842.539062 16848.710938 7837.96875 16854.414062 7837.96875 L 17583.90625 7837.96875 L 17583.90625 7393.632812 C 17583.90625 7387.226562 17589.101562 7382.109375 17595.390625 7382.109375 L 17914.296875 7382.109375 C 17920.703125 7382.109375 17925.898438 7387.265625 17925.898438 7393.632812 L 17925.898438 7837.96875 L 18596.796875 7837.96875 C 18602.5 7837.96875 18607.109375 7842.5 18607.109375 7848.203125 L 18607.109375 8132.34375 C 18607.109375 8138.046875 18602.5 8142.617188 18596.796875 8142.617188 L 17925.898438 8142.617188 L 17925.898438 8566.71875 C 17925.898438 8573.125 17920.703125 8578.242188 17914.296875 8578.242188 Z M 17595.390625 8578.242188 " transform="matrix(0.1, 0, 0, -0.1, 0, 2501.25)"/>
<path fill-rule="nonzero" fill="rgb(66.601562%, 80.076599%, 100%)" fill-opacity="1" d="M 1779.949219 1102.191406 L 2077.71875 1102.980469 C 2080.109375 1102.949219 2082.328125 1104.210938 2083.53125 1106.28125 C 2084.730469 1108.351562 2084.730469 1110.898438 2083.519531 1112.960938 C 2082.308594 1115.019531 2080.078125 1116.269531 2077.691406 1116.230469 L 1779.921875 1115.441406 C 1777.53125 1115.46875 1775.300781 1114.210938 1774.101562 1112.140625 C 1772.898438 1110.070312 1772.910156 1107.519531 1774.121094 1105.460938 C 1775.328125 1103.398438 1777.558594 1102.148438 1779.949219 1102.191406 "/>
<path fill-rule="nonzero" fill="rgb(66.601562%, 80.076599%, 100%)" fill-opacity="1" d="M 2000.691406 1059.03125 L 1967.179688 1059.03125 L 1953.859375 1024.378906 L 1892.871094 1024.378906 L 1880.28125 1059.03125 L 1847.601562 1059.03125 L 1907.03125 906.460938 L 1939.601562 906.460938 Z M 1943.96875 998.671875 L 1922.949219 942.050781 L 1902.339844 998.671875 Z M 1943.96875 998.671875 "/>
<path fill-rule="nonzero" fill="rgb(66.601562%, 80.076599%, 100%)" fill-opacity="1" d="M 2147.5 1421.460938 L 1898.140625 1421.351562 C 1897.308594 1421.339844 1896.539062 1421.671875 1896.128906 1422.210938 C 1895.710938 1422.761719 1895.699219 1423.441406 1896.121094 1423.988281 C 1896.53125 1424.53125 1897.300781 1424.871094 1898.121094 1424.851562 L 2147.488281 1424.960938 C 2148.308594 1424.96875 2149.078125 1424.640625 2149.5 1424.089844 C 2149.921875 1423.550781 2149.921875 1422.871094 2149.5 1422.320312 C 2149.078125 1421.769531 2148.308594 1421.441406 2147.488281 1421.460938 "/>
<path fill-rule="nonzero" fill="rgb(66.601562%, 80.076599%, 100%)" fill-opacity="1" d="M 2120.949219 1458.488281 L 1927.96875 1458.441406 C 1927.28125 1458.421875 1926.640625 1458.78125 1926.300781 1459.371094 C 1925.949219 1459.960938 1925.949219 1460.691406 1926.289062 1461.289062 C 1926.640625 1461.878906 1927.269531 1462.238281 1927.949219 1462.230469 L 2120.941406 1462.289062 C 2121.621094 1462.300781 2122.261719 1461.949219 2122.609375 1461.359375 C 2122.960938 1460.769531 2122.960938 1460.03125 2122.621094 1459.441406 C 2122.269531 1458.851562 2121.640625 1458.480469 2120.949219 1458.488281 "/>
<path fill-rule="nonzero" fill="rgb(66.601562%, 80.076599%, 100%)" fill-opacity="1" d="M 2146.230469 1495.859375 L 1898.03125 1495.75 C 1897.210938 1495.738281 1896.441406 1496.070312 1896.019531 1496.621094 C 1895.609375 1497.171875 1895.609375 1497.851562 1896.019531 1498.410156 C 1896.429688 1498.960938 1897.199219 1499.289062 1898.019531 1499.28125 L 2146.21875 1499.390625 C 2147.039062 1499.398438 2147.808594 1499.070312 2148.21875 1498.519531 C 2148.640625 1497.960938 2148.640625 1497.28125 2148.21875 1496.730469 C 2147.808594 1496.179688 2147.039062 1495.839844 2146.21875 1495.859375 "/>
<path fill-rule="nonzero" fill="rgb(66.601562%, 80.076599%, 100%)" fill-opacity="1" d="M 2120.949219 1537.671875 L 1927.96875 1537.617188 C 1927.28125 1537.605469 1926.640625 1537.964844 1926.300781 1538.554688 C 1925.949219 1539.144531 1925.949219 1539.875 1926.289062 1540.46875 C 1926.640625 1541.058594 1927.269531 1541.421875 1927.949219 1541.414062 L 2120.941406 1541.472656 C 2121.621094 1541.484375 2122.261719 1541.128906 2122.609375 1540.535156 C 2122.960938 1539.945312 2122.960938 1539.214844 2122.621094 1538.621094 C 2122.269531 1538.027344 2121.640625 1537.664062 2120.949219 1537.671875 "/>
<path fill-rule="nonzero" fill="rgb(66.601562%, 80.076599%, 100%)" fill-opacity="1" d="M 2147.5 1635.855469 L 1898.140625 1635.75 C 1897.308594 1635.734375 1896.539062 1636.0625 1896.128906 1636.609375 C 1895.710938 1637.15625 1895.699219 1637.835938 1896.121094 1638.382812 C 1896.53125 1638.933594 1897.300781 1639.265625 1898.121094 1639.253906 L 2147.488281 1639.355469 C 2148.308594 1639.371094 2149.078125 1639.039062 2149.5 1638.492188 C 2149.921875 1637.945312 2149.921875 1637.265625 2149.5 1636.71875 C 2149.078125 1636.171875 2148.308594 1635.839844 2147.488281 1635.855469 "/>
<path fill-rule="nonzero" fill="rgb(66.601562%, 80.076599%, 100%)" fill-opacity="1" d="M 2120.949219 1672.890625 L 1927.96875 1672.832031 C 1927.28125 1672.820312 1926.640625 1673.179688 1926.300781 1673.769531 C 1925.949219 1674.359375 1925.949219 1675.089844 1926.289062 1675.683594 C 1926.640625 1676.273438 1927.269531 1676.636719 1927.949219 1676.632812 L 2120.941406 1676.6875 C 2121.621094 1676.699219 2122.261719 1676.34375 2122.609375 1675.753906 C 2122.960938 1675.164062 2122.960938 1674.429688 2122.621094 1673.835938 C 2122.269531 1673.242188 2121.640625 1672.882812 2120.949219 1672.890625 "/>
<path fill-rule="nonzero" fill="rgb(66.601562%, 80.076599%, 100%)" fill-opacity="1" d="M 2146.230469 1710.257812 L 1898.03125 1710.152344 C 1897.210938 1710.136719 1896.441406 1710.46875 1896.019531 1711.015625 C 1895.609375 1711.566406 1895.609375 1712.253906 1896.019531 1712.804688 C 1896.429688 1713.355469 1897.199219 1713.691406 1898.019531 1713.679688 L 2146.21875 1713.785156 C 2147.039062 1713.796875 2147.808594 1713.464844 2148.21875 1712.914062 C 2148.640625 1712.363281 2148.640625 1711.679688 2148.21875 1711.128906 C 2147.808594 1710.574219 2147.039062 1710.242188 2146.21875 1710.257812 "/>
<path fill-rule="nonzero" fill="rgb(66.601562%, 80.076599%, 100%)" fill-opacity="1" d="M 2120.949219 1752.070312 L 1927.96875 1752.015625 C 1927.28125 1752.003906 1926.640625 1752.363281 1926.300781 1752.953125 C 1925.949219 1753.542969 1925.949219 1754.273438 1926.289062 1754.863281 C 1926.640625 1755.457031 1927.269531 1755.820312 1927.949219 1755.8125 L 2120.941406 1755.867188 C 2121.621094 1755.882812 2122.261719 1755.523438 2122.609375 1754.933594 C 2122.960938 1754.34375 2122.960938 1753.613281 2122.621094 1753.019531 C 2122.269531 1752.425781 2121.640625 1752.0625 2120.949219 1752.070312 "/>
<path fill-rule="nonzero" fill="rgb(66.601562%, 80.076599%, 100%)" fill-opacity="1" d="M 2147.5 1857.09375 L 1898.140625 1856.988281 C 1897.308594 1856.972656 1896.539062 1857.304688 1896.128906 1857.851562 C 1895.710938 1858.398438 1895.699219 1859.074219 1896.121094 1859.625 C 1896.53125 1860.171875 1897.300781 1860.503906 1898.121094 1860.492188 L 2147.488281 1860.597656 C 2148.308594 1860.609375 2149.078125 1860.28125 2149.5 1859.734375 C 2149.921875 1859.183594 2149.921875 1858.507812 2149.5 1857.957031 C 2149.078125 1857.410156 2148.308594 1857.078125 2147.488281 1857.09375 "/>
<path fill-rule="nonzero" fill="rgb(66.601562%, 80.076599%, 100%)" fill-opacity="1" d="M 2120.949219 1894.128906 L 1927.96875 1894.074219 C 1927.28125 1894.0625 1926.640625 1894.421875 1926.300781 1895.011719 C 1925.949219 1895.601562 1925.949219 1896.332031 1926.289062 1896.925781 C 1926.640625 1897.515625 1927.269531 1897.878906 1927.949219 1897.871094 L 2120.941406 1897.929688 C 2121.621094 1897.941406 2122.261719 1897.585938 2122.609375 1896.992188 C 2122.960938 1896.402344 2122.960938 1895.671875 2122.621094 1895.078125 C 2122.269531 1894.484375 2121.640625 1894.121094 2120.949219 1894.128906 "/>
<path fill-rule="nonzero" fill="rgb(66.601562%, 80.076599%, 100%)" fill-opacity="1" d="M 2146.230469 1931.496094 L 1898.03125 1931.390625 C 1897.210938 1931.375 1896.441406 1931.707031 1896.019531 1932.257812 C 1895.609375 1932.808594 1895.609375 1933.492188 1896.019531 1934.042969 C 1896.429688 1934.597656 1897.199219 1934.929688 1898.019531 1934.917969 L 2146.21875 1935.023438 C 2147.039062 1935.039062 2147.808594 1934.703125 2148.21875 1934.152344 C 2148.640625 1933.601562 2148.640625 1932.917969 2148.21875 1932.367188 C 2147.808594 1931.816406 2147.039062 1931.480469 2146.21875 1931.496094 "/>
<path fill-rule="nonzero" fill="rgb(66.601562%, 80.076599%, 100%)" fill-opacity="1" d="M 2120.949219 1973.3125 L 1927.96875 1973.253906 C 1927.28125 1973.242188 1926.640625 1973.601562 1926.300781 1974.191406 C 1925.949219 1974.78125 1925.949219 1975.511719 1926.289062 1976.105469 C 1926.640625 1976.699219 1927.269531 1977.058594 1927.949219 1977.054688 L 2120.941406 1977.109375 C 2121.621094 1977.121094 2122.261719 1976.765625 2122.609375 1976.175781 C 2122.960938 1975.585938 2122.960938 1974.851562 2122.621094 1974.257812 C 2122.269531 1973.664062 2121.640625 1973.304688 2120.949219 1973.3125 "/>
<path fill-rule="nonzero" fill="rgb(0%, 19.993591%, 50.193787%)" fill-opacity="1" d="M 2214.289062 703.519531 C 2255.878906 725.449219 2296.128906 752.53125 2324.128906 791.859375 C 2333.589844 804.101562 2340.871094 818.878906 2340.28125 835.46875 C 2340.398438 844.839844 2338 854.371094 2333.53125 862.71875 L 2315.261719 901.898438 L 2315.25 901.878906 C 2310.851562 911.421875 2303.828125 919.710938 2294.808594 924.921875 C 2272.398438 939.140625 2245.710938 938.75 2221.851562 935.609375 C 2149.691406 926.929688 2083.910156 893.691406 2025.621094 852.21875 C 1997.921875 830.949219 1971.351562 804.730469 1960.699219 769.03125 C 1958.21875 756.640625 1960.640625 742.820312 1966.808594 731.171875 L 1985.878906 690.019531 L 1986.03125 690.089844 C 1991.710938 678.828125 2000.871094 669.460938 2012.511719 665.148438 C 2041.738281 651.511719 2073.488281 656.878906 2102.699219 661.96875 C 2138.789062 669.359375 2173 683.148438 2205.949219 699.199219 C 2208.738281 700.621094 2211.511719 702.058594 2214.289062 703.519531 "/>
<path fill-rule="nonzero" fill="rgb(83.59375%, 89.84375%, 100%)" fill-opacity="1" d="M 2205.730469 696.398438 C 2248.398438 718.140625 2290.429688 744.910156 2319.21875 784.800781 C 2328.339844 796.441406 2335.390625 810.46875 2334.921875 826.171875 C 2335.261719 843.820312 2326.058594 862.019531 2310.628906 870.800781 C 2289.289062 884.128906 2263.78125 883.601562 2240.949219 880.488281 C 2171.929688 871.839844 2108.859375 840 2052.898438 800.410156 C 2026.300781 780.121094 2000.75 755.140625 1990.359375 721.289062 C 1985.660156 698.660156 1998.269531 671.121094 2020.640625 663.039062 C 2048.488281 650.300781 2078.871094 655.570312 2106.820312 660.550781 C 2141.359375 667.761719 2174.128906 681.011719 2205.730469 696.398438 "/>
<path fill-rule="nonzero" fill="rgb(0%, 19.993591%, 50.193787%)" fill-opacity="1" d="M 2282.28125 558.921875 C 2283.570312 559.601562 2284.851562 560.289062 2286.128906 560.988281 C 2286.601562 561.238281 2287.058594 561.5 2287.53125 561.761719 C 2288.359375 562.210938 2289.191406 562.660156 2290.011719 563.121094 C 2290.480469 563.378906 2290.949219 563.648438 2291.421875 563.910156 C 2292.238281 564.371094 2293.070312 564.828125 2293.890625 565.300781 C 2294.371094 565.570312 2294.851562 565.851562 2295.339844 566.121094 C 2296.121094 566.578125 2296.910156 567.03125 2297.699219 567.480469 C 2298.230469 567.789062 2298.75 568.101562 2299.28125 568.410156 C 2300.019531 568.851562 2300.769531 569.28125 2301.511719 569.71875 C 2302.058594 570.050781 2302.601562 570.371094 2303.140625 570.699219 C 2303.851562 571.128906 2304.570312 571.558594 2305.28125 571.988281 C 2305.828125 572.328125 2306.378906 572.671875 2306.929688 573.011719 C 2307.660156 573.460938 2308.390625 573.910156 2309.121094 574.359375 C 2309.648438 574.691406 2310.171875 575.03125 2310.699219 575.359375 C 2311.398438 575.800781 2312.089844 576.238281 2312.78125 576.691406 C 2313.339844 577.050781 2313.898438 577.398438 2314.449219 577.769531 C 2315.179688 578.238281 2315.898438 578.710938 2316.621094 579.191406 C 2317.109375 579.511719 2317.609375 579.839844 2318.109375 580.179688 C 2318.851562 580.671875 2319.578125 581.171875 2320.320312 581.671875 C 2320.820312 582.011719 2321.320312 582.351562 2321.820312 582.699219 C 2322.570312 583.210938 2323.308594 583.730469 2324.058594 584.25 C 2324.511719 584.570312 2324.960938 584.878906 2325.410156 585.199219 C 2326.191406 585.761719 2326.980469 586.328125 2327.761719 586.890625 C 2328.199219 587.210938 2328.640625 587.519531 2329.070312 587.839844 C 2329.800781 588.378906 2330.53125 588.921875 2331.261719 589.46875 C 2331.71875 589.808594 2332.191406 590.160156 2332.660156 590.511719 C 2333.46875 591.128906 2334.28125 591.75 2335.089844 592.378906 C 2335.449219 592.660156 2335.808594 592.929688 2336.171875 593.210938 C 2337.339844 594.121094 2338.5 595.039062 2339.660156 595.980469 C 2340.808594 596.910156 2341.960938 597.859375 2343.101562 598.808594 C 2343.429688 599.089844 2343.75 599.359375 2344.070312 599.640625 C 2344.878906 600.320312 2345.691406 601.011719 2346.488281 601.710938 C 2346.890625 602.050781 2347.28125 602.398438 2347.679688 602.738281 C 2348.390625 603.378906 2349.121094 604.011719 2349.828125 604.648438 C 2350.261719 605.039062 2350.691406 605.441406 2351.128906 605.828125 C 2351.800781 606.449219 2352.46875 607.058594 2353.128906 607.679688 C 2353.570312 608.089844 2354 608.5 2354.429688 608.910156 C 2355.070312 609.519531 2355.710938 610.128906 2356.351562 610.75 C 2356.808594 611.199219 2357.28125 611.660156 2357.738281 612.121094 C 2358.328125 612.699219 2358.929688 613.289062 2359.511719 613.878906 C 2359.980469 614.351562 2360.441406 614.820312 2360.898438 615.300781 C 2361.488281 615.898438 2362.070312 616.511719 2362.648438 617.121094 C 2363.109375 617.609375 2363.570312 618.089844 2364.019531 618.578125 C 2364.578125 619.179688 2365.148438 619.789062 2365.699219 620.398438 C 2366.148438 620.898438 2366.601562 621.390625 2367.050781 621.890625 C 2367.621094 622.53125 2368.191406 623.179688 2368.75 623.820312 C 2369.171875 624.300781 2369.578125 624.78125 2370 625.261719 C 2370.578125 625.941406 2371.148438 626.621094 2371.710938 627.300781 C 2372.121094 627.78125 2372.519531 628.261719 2372.921875 628.75 C 2373.480469 629.429688 2374.03125 630.121094 2374.578125 630.820312 C 2374.980469 631.320312 2375.378906 631.820312 2375.78125 632.328125 C 2376.328125 633.039062 2376.878906 633.761719 2377.429688 634.480469 C 2377.828125 635.011719 2378.238281 635.539062 2378.640625 636.070312 C 2378.78125 636.269531 2378.921875 636.460938 2379.058594 636.648438 C 2379.820312 637.679688 2380.578125 638.71875 2381.320312 639.769531 C 2381.410156 639.898438 2381.5 640.03125 2381.589844 640.160156 C 2382.359375 641.261719 2383.128906 642.359375 2383.878906 643.480469 C 2383.949219 643.589844 2384.03125 643.699219 2384.101562 643.820312 C 2384.878906 644.96875 2385.640625 646.140625 2386.398438 647.308594 C 2389.410156 651.621094 2392.148438 656.25 2394.398438 661.191406 C 2394.601562 661.640625 2394.800781 662.089844 2395 662.539062 C 2396.769531 666.628906 2398.191406 670.921875 2399.140625 675.410156 C 2399.238281 675.910156 2399.339844 676.410156 2399.441406 676.910156 C 2399.628906 677.910156 2399.789062 678.929688 2399.929688 679.960938 C 2400.210938 682.011719 2400.390625 684.089844 2400.449219 686.21875 C 2400.46875 686.75 2400.480469 687.28125 2400.480469 687.820312 C 2400.480469 688.351562 2400.480469 688.890625 2400.46875 689.429688 C 2400.441406 690.511719 2400.390625 691.601562 2400.308594 692.699219 C 2400.300781 692.988281 2400.28125 693.308594 2400.25 693.628906 C 2400.238281 693.761719 2400.21875 693.890625 2400.210938 694.019531 C 2400.179688 694.230469 2400.160156 694.441406 2400.128906 694.660156 C 2400.109375 694.828125 2400.078125 695.011719 2400.058594 695.191406 C 2400.03125 695.371094 2400 695.558594 2399.96875 695.75 C 2399.929688 695.96875 2399.890625 696.191406 2399.851562 696.410156 C 2399.820312 696.578125 2399.789062 696.75 2399.75 696.921875 C 2399.699219 697.191406 2399.640625 697.480469 2399.570312 697.769531 C 2399.550781 697.878906 2399.53125 697.988281 2399.5 698.109375 C 2399.410156 698.488281 2399.320312 698.878906 2399.21875 699.28125 C 2398.820312 700.910156 2398.300781 702.738281 2397.699219 704.679688 C 2397.628906 704.910156 2397.558594 705.140625 2397.480469 705.378906 C 2397.191406 706.289062 2396.890625 707.21875 2396.558594 708.179688 C 2396.519531 708.308594 2396.46875 708.449219 2396.429688 708.578125 C 2396.070312 709.628906 2395.691406 710.710938 2395.289062 711.820312 C 2395.269531 711.878906 2395.25 711.941406 2395.21875 712.011719 C 2394.800781 713.179688 2394.359375 714.371094 2393.890625 715.601562 L 2395.058594 716.160156 L 2339.699219 832.289062 L 2339.691406 832.269531 C 2334.910156 842.570312 2327.621094 851.660156 2318.5 857.589844 C 2313.109375 861.398438 2307.519531 864.351562 2301.808594 866.609375 C 2301.78125 866.621094 2301.738281 866.628906 2301.710938 866.648438 C 2301.101562 866.890625 2300.480469 867.121094 2299.871094 867.351562 C 2299.761719 867.390625 2299.660156 867.429688 2299.550781 867.460938 C 2298.96875 867.671875 2298.390625 867.878906 2297.808594 868.070312 C 2297.679688 868.121094 2297.550781 868.160156 2297.421875 868.199219 C 2296.859375 868.390625 2296.289062 868.570312 2295.730469 868.75 C 2295.589844 868.789062 2295.441406 868.828125 2295.300781 868.878906 C 2294.738281 869.050781 2294.171875 869.21875 2293.609375 869.378906 C 2293.480469 869.410156 2293.359375 869.441406 2293.238281 869.480469 C 2292.648438 869.640625 2292.058594 869.800781 2291.46875 869.949219 C 2291.449219 869.960938 2291.429688 869.960938 2291.410156 869.96875 C 2290.050781 870.308594 2288.679688 870.628906 2287.308594 870.910156 C 2286.910156 871 2286.5 871.070312 2286.101562 871.148438 C 2285.761719 871.21875 2285.421875 871.28125 2285.089844 871.351562 C 2284.730469 871.410156 2284.378906 871.46875 2284.019531 871.53125 C 2283.640625 871.601562 2283.261719 871.660156 2282.878906 871.71875 C 2282.550781 871.78125 2282.230469 871.820312 2281.898438 871.871094 C 2281.46875 871.941406 2281.03125 872 2280.589844 872.058594 C 2280.308594 872.101562 2280.03125 872.140625 2279.75 872.171875 C 2279.269531 872.238281 2278.789062 872.300781 2278.300781 872.351562 C 2278.070312 872.378906 2277.828125 872.410156 2277.601562 872.429688 C 2277.03125 872.488281 2276.449219 872.550781 2275.878906 872.609375 C 2275.738281 872.621094 2275.609375 872.628906 2275.46875 872.648438 C 2274.789062 872.710938 2274.121094 872.761719 2273.449219 872.808594 C 2273.390625 872.820312 2273.320312 872.820312 2273.261719 872.820312 C 2272.511719 872.878906 2271.761719 872.929688 2271.019531 872.96875 C 2267.941406 873.128906 2264.878906 873.179688 2261.839844 873.140625 C 2261.808594 873.140625 2261.78125 873.140625 2261.761719 873.140625 C 2260.859375 873.128906 2259.960938 873.109375 2259.070312 873.078125 C 2258.53125 873.058594 2257.988281 873.039062 2257.449219 873.019531 C 2256.640625 872.988281 2255.839844 872.960938 2255.039062 872.910156 C 2255.03125 872.910156 2255.019531 872.910156 2255.011719 872.910156 C 2252.011719 872.75 2249.050781 872.53125 2246.128906 872.25 C 2175.46875 866.378906 2112.21875 834.25 2056.710938 793.050781 C 2030.410156 771.828125 2005.449219 745.308594 1996.601562 708.039062 C 1994.78125 695.371094 1997.589844 681.050781 2003.871094 668.671875 L 2003.890625 668.691406 C 2004.058594 668.371094 2004.210938 668.039062 2004.378906 667.710938 L 2036.171875 600.929688 L 2036.171875 600.921875 C 2036.429688 600.339844 2036.710938 599.761719 2036.96875 599.171875 C 2037.378906 598.289062 2037.78125 597.410156 2038.191406 596.539062 C 2038.621094 595.609375 2039.058594 594.691406 2039.5 593.761719 C 2039.5 593.761719 2039.5 593.75 2039.5 593.75 C 2039.511719 593.71875 2039.53125 593.699219 2039.539062 593.671875 C 2040.660156 591.308594 2041.808594 588.960938 2042.96875 586.621094 C 2042.980469 586.621094 2042.980469 586.609375 2042.980469 586.609375 L 2057.96875 555.121094 L 2060.039062 556.101562 C 2060.039062 556.101562 2060.039062 556.089844 2060.050781 556.078125 C 2060.578125 555.25 2061.101562 554.441406 2061.628906 553.628906 C 2061.808594 553.351562 2062 553.078125 2062.179688 552.800781 C 2062.53125 552.269531 2062.878906 551.738281 2063.230469 551.21875 C 2063.460938 550.878906 2063.679688 550.550781 2063.910156 550.21875 C 2064.21875 549.761719 2064.53125 549.308594 2064.839844 548.859375 C 2065.050781 548.558594 2065.261719 548.261719 2065.480469 547.960938 C 2065.808594 547.480469 2066.140625 547.011719 2066.480469 546.550781 C 2066.679688 546.261719 2066.890625 545.980469 2067.089844 545.699219 C 2067.46875 545.171875 2067.859375 544.660156 2068.238281 544.148438 C 2068.371094 543.96875 2068.511719 543.78125 2068.640625 543.609375 C 2069.160156 542.921875 2069.671875 542.261719 2070.179688 541.609375 C 2070.308594 541.441406 2070.441406 541.289062 2070.570312 541.128906 C 2070.960938 540.621094 2071.359375 540.128906 2071.761719 539.648438 C 2071.910156 539.46875 2072.058594 539.289062 2072.210938 539.101562 C 2072.558594 538.679688 2072.910156 538.269531 2073.261719 537.871094 C 2073.441406 537.660156 2073.621094 537.449219 2073.808594 537.238281 C 2074.128906 536.871094 2074.460938 536.511719 2074.78125 536.160156 C 2074.960938 535.960938 2075.140625 535.761719 2075.320312 535.570312 C 2075.660156 535.199219 2076 534.851562 2076.339844 534.511719 C 2076.480469 534.359375 2076.628906 534.199219 2076.78125 534.050781 C 2077.261719 533.570312 2077.738281 533.101562 2078.210938 532.671875 C 2078.28125 532.589844 2078.359375 532.53125 2078.441406 532.460938 C 2078.828125 532.089844 2079.230469 531.738281 2079.609375 531.410156 C 2079.75 531.289062 2079.890625 531.171875 2080.03125 531.058594 C 2080.359375 530.789062 2080.679688 530.53125 2081 530.28125 C 2081.261719 530.078125 2081.519531 529.878906 2081.78125 529.691406 C 2081.820312 529.660156 2081.871094 529.621094 2081.921875 529.589844 C 2082.261719 529.351562 2082.601562 529.121094 2082.929688 528.910156 C 2083.011719 528.859375 2083.089844 528.808594 2083.171875 528.761719 C 2083.5 528.550781 2083.828125 528.359375 2084.148438 528.191406 C 2084.210938 528.148438 2084.269531 528.121094 2084.328125 528.089844 C 2084.671875 527.910156 2085.011719 527.738281 2085.339844 527.601562 C 2086.261719 527.109375 2087.179688 526.628906 2088.101562 526.179688 C 2089.949219 525.269531 2091.800781 524.441406 2093.648438 523.671875 C 2094.578125 523.289062 2095.511719 522.929688 2096.441406 522.578125 C 2097.371094 522.230469 2098.300781 521.910156 2099.230469 521.589844 C 2101.089844 520.96875 2102.960938 520.410156 2104.828125 519.910156 C 2108.570312 518.910156 2112.320312 518.148438 2116.070312 517.601562 C 2117.949219 517.328125 2119.828125 517.101562 2121.710938 516.921875 C 2122.640625 516.828125 2123.578125 516.761719 2124.519531 516.691406 C 2125.460938 516.621094 2126.398438 516.570312 2127.339844 516.519531 C 2129.210938 516.429688 2131.089844 516.378906 2132.960938 516.371094 C 2133.898438 516.359375 2134.828125 516.359375 2135.769531 516.371094 C 2136.699219 516.378906 2137.640625 516.398438 2138.570312 516.429688 C 2140.441406 516.480469 2142.300781 516.570312 2144.160156 516.679688 C 2145.089844 516.730469 2146.019531 516.800781 2146.949219 516.859375 C 2147.878906 516.929688 2148.800781 517.011719 2149.730469 517.089844 C 2156.199219 517.640625 2162.621094 518.460938 2168.921875 519.328125 C 2170.730469 519.578125 2172.519531 519.839844 2174.300781 520.089844 C 2175.398438 520.28125 2176.5 520.480469 2177.601562 520.691406 C 2178.691406 520.890625 2179.789062 521.101562 2180.878906 521.320312 C 2181.96875 521.539062 2183.058594 521.769531 2184.140625 522 C 2185.230469 522.230469 2186.320312 522.46875 2187.398438 522.710938 C 2188.480469 522.949219 2189.558594 523.199219 2190.640625 523.460938 C 2191.71875 523.71875 2192.800781 523.980469 2193.878906 524.25 C 2194.949219 524.511719 2196.03125 524.789062 2197.101562 525.070312 C 2198.171875 525.351562 2199.238281 525.628906 2200.308594 525.929688 C 2201.378906 526.21875 2202.441406 526.511719 2203.511719 526.808594 C 2204.570312 527.121094 2205.628906 527.421875 2206.691406 527.738281 C 2207.75 528.050781 2208.808594 528.371094 2209.871094 528.691406 C 2210.929688 529.019531 2211.980469 529.351562 2213.03125 529.679688 C 2214.089844 530.011719 2215.140625 530.351562 2216.191406 530.691406 C 2217.238281 531.039062 2218.289062 531.390625 2219.328125 531.738281 C 2221.421875 532.449219 2223.511719 533.171875 2225.589844 533.921875 C 2226.628906 534.289062 2227.660156 534.671875 2228.699219 535.050781 C 2229.738281 535.429688 2230.769531 535.820312 2231.800781 536.210938 C 2235.929688 537.769531 2240.039062 539.390625 2244.121094 541.078125 C 2246.148438 541.929688 2248.191406 542.789062 2250.210938 543.660156 C 2252.238281 544.53125 2254.261719 545.421875 2256.28125 546.320312 C 2262.328125 549.019531 2268.320312 551.828125 2274.269531 554.730469 C 2276.941406 556.101562 2279.609375 557.5 2282.269531 558.910156 "/>
<path fill-rule="nonzero" fill="rgb(0%, 13.330078%, 33.325195%)" fill-opacity="1" d="M 2314.980469 455.359375 L 2505.980469 750.410156 L 2528.160156 756.441406 L 2520.351562 772.621094 L 2144.191406 809.128906 L 1938.820312 491.878906 L 1946.628906 475.699219 L 1962.789062 489.550781 L 2314.980469 455.359375 "/>
<path fill-rule="nonzero" fill="rgb(0%, 19.993591%, 50.193787%)" fill-opacity="1" d="M 2322.789062 439.191406 L 1946.628906 475.699219 L 2152 792.960938 L 2528.160156 756.441406 L 2322.789062 439.191406 "/>
<path fill-rule="nonzero" fill="rgb(82.8125%, 37.255859%, 37.255859%)" fill-opacity="1" d="M 2222.558594 608.910156 C 2220.628906 612.921875 2225.699219 619.371094 2233.890625 623.328125 C 2242.078125 627.28125 2250.289062 627.238281 2252.230469 623.230469 C 2253.160156 621.308594 2252.480469 618.710938 2250.359375 616.011719 C 2248.230469 613.300781 2244.828125 610.71875 2240.898438 608.820312 C 2236.960938 606.921875 2232.820312 605.859375 2229.378906 605.878906 C 2225.941406 605.898438 2223.488281 606.988281 2222.558594 608.910156 "/>
<path fill-rule="nonzero" fill="rgb(82.8125%, 37.255859%, 37.255859%)" fill-opacity="1" d="M 2239.109375 614.660156 C 2240.128906 614.371094 2241.21875 614.53125 2242.101562 615.121094 C 2310.53125 659.28125 2378.898438 703.378906 2412.230469 728.441406 C 2428.898438 740.96875 2436.921875 748.558594 2440.46875 755.359375 C 2442.25 758.761719 2442.738281 762.128906 2442.261719 765.101562 C 2441.789062 768.078125 2440.570312 770.558594 2439.371094 773.039062 C 2434.578125 782.960938 2427.628906 796.550781 2420.558594 810.371094 C 2420 811.539062 2418.839844 812.320312 2417.539062 812.398438 C 2416.238281 812.46875 2415 811.839844 2414.308594 810.738281 C 2413.609375 809.640625 2413.558594 808.25 2414.179688 807.109375 C 2421.238281 793.289062 2428.191406 779.699219 2432.910156 769.921875 C 2434.089844 767.46875 2434.929688 765.578125 2435.179688 763.980469 C 2435.429688 762.378906 2435.320312 760.980469 2434.109375 758.679688 C 2431.710938 754.070312 2424.320312 746.5 2407.921875 734.171875 C 2375.121094 709.519531 2306.640625 665.300781 2238.210938 621.140625 C 2237.019531 620.390625 2236.371094 619.011719 2236.558594 617.609375 C 2236.761719 616.210938 2237.761719 615.058594 2239.109375 614.660156 "/>
<path fill-rule="nonzero" fill="rgb(82.8125%, 37.255859%, 37.255859%)" fill-opacity="1" d="M 2399.871094 812.808594 C 2397.109375 818.53125 2400.539062 825.890625 2407.519531 829.269531 C 2410.878906 830.890625 2414.621094 831.351562 2417.929688 830.550781 C 2421.238281 829.761719 2423.839844 827.769531 2425.171875 825.019531 C 2426.488281 822.28125 2426.429688 819 2425 815.921875 C 2423.558594 812.828125 2420.871094 810.191406 2417.519531 808.570312 C 2414.160156 806.949219 2410.421875 806.488281 2407.109375 807.28125 C 2403.800781 808.078125 2401.191406 810.070312 2399.871094 812.808594 "/>
<path fill-rule="nonzero" fill="rgb(82.8125%, 37.255859%, 37.255859%)" fill-opacity="1" d="M 2413.671875 843.308594 C 2412.46875 859.261719 2406.871094 887.011719 2398.109375 900.730469 C 2389.351562 914.441406 2377.441406 914.109375 2369.210938 910.050781 C 2360.980469 905.980469 2356.441406 898.179688 2359.378906 886.210938 C 2362.308594 874.25 2372.71875 858.128906 2382.140625 846.238281 C 2391.558594 834.359375 2399.988281 826.710938 2405.820312 824.960938 C 2411.640625 823.210938 2414.859375 827.359375 2413.671875 843.308594 "/>
<path fill-rule="nonzero" fill="rgb(66.601562%, 80.076599%, 100%)" fill-opacity="1" d="M 2130.988281 1200.398438 L 1720.859375 1200.230469 C 1719.5 1200.199219 1718.238281 1200.738281 1717.550781 1201.640625 C 1716.859375 1202.539062 1716.859375 1203.660156 1717.539062 1204.558594 C 1718.21875 1205.460938 1719.480469 1206.011719 1720.839844 1205.988281 L 2130.96875 1206.160156 C 2132.320312 1206.179688 2133.589844 1205.640625 2134.269531 1204.738281 C 2134.960938 1203.839844 2134.960938 1202.71875 2134.269531 1201.820312 C 2133.589844 1200.921875 2132.320312 1200.371094 2130.96875 1200.398438 "/>
<path fill-rule="nonzero" fill="rgb(66.601562%, 80.076599%, 100%)" fill-opacity="1" d="M 2087.320312 1261.308594 L 1769.921875 1261.21875 C 1768.789062 1261.199219 1767.738281 1261.789062 1767.179688 1262.761719 C 1766.609375 1263.730469 1766.601562 1264.929688 1767.171875 1265.910156 C 1767.730469 1266.878906 1768.769531 1267.480469 1769.898438 1267.46875 L 2087.300781 1267.558594 C 2088.421875 1267.578125 2089.480469 1266.988281 2090.050781 1266.019531 C 2090.621094 1265.050781 2090.628906 1263.851562 2090.058594 1262.871094 C 2089.5 1261.890625 2088.449219 1261.300781 2087.320312 1261.308594 "/>
<path fill-rule="nonzero" fill="rgb(66.601562%, 80.076599%, 100%)" fill-opacity="1" d="M 2128.898438 1322.769531 L 1720.679688 1322.589844 C 1719.328125 1322.570312 1718.070312 1323.109375 1717.378906 1324.019531 C 1716.699219 1324.929688 1716.691406 1326.050781 1717.371094 1326.960938 C 1718.050781 1327.871094 1719.308594 1328.421875 1720.660156 1328.398438 L 2128.878906 1328.570312 C 2130.230469 1328.589844 2131.488281 1328.050781 2132.171875 1327.140625 C 2132.859375 1326.230469 2132.859375 1325.109375 2132.171875 1324.199219 C 2131.488281 1323.289062 2130.230469 1322.738281 2128.878906 1322.769531 "/>
<path fill-rule="nonzero" fill="rgb(21.556091%, 44.309998%, 78.514099%)" fill-opacity="1" d="M 1300.820312 1629.128906 L 976.542969 1633.671875 C 900.296875 1634.738281 839.769531 1696.523438 840.828125 1772.203125 L 842.511719 1892.296875 C 843.570312 1967.972656 905.804688 2028.039062 982.050781 2026.972656 L 1000.078125 2080.769531 L 1084.011719 2025.542969 L 1306.328125 2022.429688 C 1382.578125 2021.363281 1443.109375 1959.574219 1442.050781 1883.898438 L 1440.359375 1763.804688 C 1439.300781 1688.125 1377.070312 1628.058594 1300.820312 1629.128906 "/>
<path fill-rule="nonzero" fill="rgb(50.193787%, 70.117188%, 100%)" fill-opacity="1" d="M 1285.410156 1622.144531 L 970.179688 1626.5625 C 896.0625 1627.597656 837.230469 1688.101562 838.269531 1762.21875 L 839.917969 1879.828125 C 840.957031 1953.945312 901.460938 2012.777344 975.574219 2011.742188 L 999.148438 2076.109375 L 1074.691406 2010.351562 L 1290.800781 2007.324219 C 1364.921875 2006.285156 1423.75 1945.785156 1422.710938 1871.667969 L 1421.070312 1754.054688 C 1420.03125 1679.9375 1359.519531 1621.105469 1285.410156 1622.144531 "/>
<path fill-rule="nonzero" fill="rgb(100%, 100%, 100%)" fill-opacity="1" d="M 1246.601562 1748.300781 L 1013.230469 1753.847656 C 1006.179688 1754.015625 1000.660156 1760.988281 1000.859375 1769.484375 C 1001.070312 1777.980469 1006.898438 1784.683594 1013.960938 1784.515625 L 1247.328125 1778.96875 C 1254.378906 1778.800781 1259.890625 1771.828125 1259.691406 1763.335938 C 1259.488281 1754.839844 1253.648438 1748.136719 1246.601562 1748.300781 "/>
<path fill-rule="nonzero" fill="rgb(100%, 100%, 100%)" fill-opacity="1" d="M 1255.730469 1851.40625 L 1022.351562 1856.953125 C 1015.300781 1857.121094 1009.789062 1864.09375 1009.988281 1872.589844 C 1010.191406 1881.085938 1016.03125 1887.789062 1023.078125 1887.621094 L 1256.460938 1882.074219 C 1263.511719 1881.90625 1269.019531 1874.933594 1268.820312 1866.4375 C 1268.609375 1857.941406 1262.78125 1851.238281 1255.730469 1851.40625 "/>
<path fill-rule="nonzero" fill="rgb(82.8125%, 55.271912%, 37.255859%)" fill-opacity="1" d="M 1622.328125 1133.769531 L 1286.648438 1140.078125 C 1198.769531 1141.730469 1129.738281 1234.449219 1131.871094 1347.96875 C 1134 1461.488281 1206.46875 1551.546875 1294.351562 1549.894531 L 1563.511719 1544.835938 L 1600.589844 1582.46875 L 1623.148438 1530.445312 C 1711.03125 1528.792969 1786.941406 1449.210938 1784.808594 1335.699219 C 1782.679688 1222.179688 1710.210938 1132.121094 1622.328125 1133.769531 "/>
<path fill-rule="nonzero" fill="rgb(93.75%, 73.242188%, 18.041992%)" fill-opacity="1" d="M 1601.230469 1134.941406 L 1274.929688 1141.070312 C 1189.5 1142.679688 1122.371094 1231.449219 1124.421875 1340.109375 C 1126.460938 1448.761719 1196.878906 1534.945312 1282.300781 1533.339844 L 1543.941406 1528.421875 L 1596.390625 1580.003906 L 1608.609375 1527.207031 C 1694.03125 1525.601562 1761.160156 1436.828125 1759.121094 1328.171875 C 1757.078125 1219.519531 1686.660156 1133.328125 1601.230469 1134.941406 "/>
<path fill-rule="nonzero" fill="rgb(100%, 100%, 100%)" fill-opacity="1" d="M 1495.378906 1329.550781 C 1495.578125 1348.25 1510.910156 1363.230469 1529.601562 1363.03125 C 1548.300781 1362.820312 1563.28125 1347.5 1563.078125 1328.800781 C 1562.871094 1310.109375 1547.550781 1295.121094 1528.851562 1295.328125 C 1510.160156 1295.53125 1495.171875 1310.859375 1495.378906 1329.550781 "/>
<path fill-rule="nonzero" fill="rgb(100%, 100%, 100%)" fill-opacity="1" d="M 1400.269531 1329.398438 C 1400.480469 1348.089844 1415.808594 1363.078125 1434.5 1362.871094 C 1453.191406 1362.660156 1468.179688 1347.339844 1467.96875 1328.648438 C 1467.769531 1309.949219 1452.441406 1294.960938 1433.75 1295.171875 C 1415.050781 1295.378906 1400.070312 1310.699219 1400.269531 1329.398438 "/>
<path fill-rule="nonzero" fill="rgb(100%, 100%, 100%)" fill-opacity="1" d="M 1305.171875 1330.449219 C 1305.378906 1349.148438 1320.699219 1364.128906 1339.398438 1363.929688 C 1358.089844 1363.71875 1373.078125 1348.398438 1372.871094 1329.699219 C 1372.660156 1311.011719 1357.339844 1296.019531 1338.648438 1296.230469 C 1329.671875 1296.328125 1321.101562 1299.988281 1314.820312 1306.410156 C 1308.539062 1312.828125 1305.070312 1321.46875 1305.171875 1330.449219 "/>
<path fill-rule="nonzero" fill="rgb(62.693787%, 17.259216%, 17.259216%)" fill-opacity="1" d="M 1381.179688 659.660156 L 1341.429688 611.578125 L 1380.421875 585.839844 L 1396.578125 599.359375 L 1381.179688 659.660156 "/>
<path fill-rule="nonzero" fill="rgb(87.109375%, 52.929688%, 52.929688%)" fill-opacity="1" d="M 1234.011719 438.46875 L 1281.640625 667.710938 L 1461.421875 572.109375 Z M 1234.011719 438.46875 "/>
<path fill-rule="nonzero" fill="rgb(82.8125%, 37.255859%, 37.255859%)" fill-opacity="1" d="M 1352.269531 564.519531 L 1281.640625 667.710938 L 1461.421875 572.109375 Z M 1352.269531 564.519531 "/>
<path fill-rule="nonzero" fill="rgb(78.514099%, 21.556091%, 21.556091%)" fill-opacity="1" d="M 1234.011719 438.46875 L 1419.769531 589.71875 L 1381.179688 659.660156 L 1381.261719 614.351562 L 1234.011719 438.46875 "/>
</svg>
