<?xml version="1.0" encoding="UTF-8"?>
<svg xmlns="http://www.w3.org/2000/svg" xmlns:xlink="http://www.w3.org/1999/xlink" width="3750" height="2501.25" viewBox="0 0 3750 2501.25">
<path fill-rule="nonzero" fill="rgb(100%, 100%, 100%)" fill-opacity="1" d="M 0 0 L 3750 0 L 3750 2501.25 L 0 2501.25 L 0 0 "/>
<path fill-rule="nonzero" fill="rgb(100%, 100%, 100%)" fill-opacity="1" d="M 1399.390625 1471.890625 C 1403.03125 1470.46875 1406.238281 1467.011719 1407.039062 1463.660156 C 1407.839844 1460.308594 1406 1458.011719 1402.648438 1458.199219 L 1311.191406 1462.03125 C 1308.710938 1462.078125 1305.78125 1463.53125 1303.539062 1465.828125 C 1301.308594 1468.121094 1300.109375 1470.898438 1300.410156 1473.089844 C 1300.710938 1475.269531 1302.46875 1476.53125 1305 1476.359375 L 1396.460938 1472.539062 C 1397.378906 1472.5 1398.371094 1472.28125 1399.378906 1471.878906 "/>
<path fill-rule="nonzero" fill="rgb(100%, 100%, 100%)" fill-opacity="1" d="M 1399.5 1436.300781 C 1400.71875 1435.820312 1401.789062 1434.671875 1402.050781 1433.550781 C 1402.320312 1432.429688 1401.699219 1431.671875 1400.589844 1431.730469 L 1309.128906 1435.558594 C 1308.300781 1435.558594 1307.308594 1436.039062 1306.550781 1436.808594 C 1305.789062 1437.589844 1305.390625 1438.519531 1305.5 1439.261719 C 1305.601562 1439.988281 1306.210938 1440.410156 1307.070312 1440.328125 L 1398.53125 1436.511719 C 1398.828125 1436.5 1399.160156 1436.429688 1399.5 1436.300781 "/>
<path fill-rule="nonzero" fill="rgb(100%, 100%, 100%)" fill-opacity="1" d="M 1399.511719 1424.761719 C 1400.71875 1424.28125 1401.789062 1423.128906 1402.058594 1422.011719 C 1402.320312 1420.890625 1401.710938 1420.128906 1400.589844 1420.191406 L 1309.128906 1424.019531 C 1308.300781 1424.03125 1307.320312 1424.511719 1306.558594 1425.28125 C 1305.808594 1426.050781 1305.410156 1426.980469 1305.511719 1427.710938 C 1305.621094 1428.449219 1306.210938 1428.859375 1307.070312 1428.800781 L 1398.53125 1424.96875 C 1398.828125 1424.960938 1399.160156 1424.890625 1399.5 1424.761719 "/>
<path fill-rule="nonzero" fill="rgb(100%, 100%, 100%)" fill-opacity="1" d="M 1399.511719 1413.21875 C 1400.71875 1412.738281 1401.789062 1411.589844 1402.058594 1410.46875 C 1402.328125 1409.351562 1401.710938 1408.589844 1400.589844 1408.648438 L 1309.140625 1412.480469 C 1308.308594 1412.480469 1307.320312 1412.960938 1306.558594 1413.730469 C 1305.800781 1414.511719 1305.398438 1415.441406 1305.5 1416.179688 C 1305.609375 1416.910156 1306.210938 1417.328125 1307.070312 1417.261719 L 1398.53125 1413.429688 C 1398.839844 1413.421875 1399.171875 1413.351562 1399.511719 1413.21875 "/>
<path fill-rule="nonzero" fill="rgb(100%, 100%, 100%)" fill-opacity="1" d="M 1399.769531 1362.101562 C 1400.941406 1361.550781 1401.898438 1360.410156 1402.101562 1359.351562 C 1402.300781 1358.289062 1401.679688 1357.589844 1400.601562 1357.648438 L 1309.140625 1361.480469 C 1308.308594 1361.46875 1307.320312 1361.949219 1306.550781 1362.71875 C 1305.789062 1363.5 1305.378906 1364.441406 1305.488281 1365.179688 C 1305.601562 1365.921875 1306.21875 1366.328125 1307.078125 1366.25 L 1398.539062 1362.421875 C 1398.929688 1362.410156 1399.351562 1362.308594 1399.769531 1362.109375 "/>
<path fill-rule="nonzero" fill="rgb(100%, 100%, 100%)" fill-opacity="1" d="M 1399.78125 1350.558594 C 1400.941406 1350.011719 1401.910156 1348.871094 1402.101562 1347.808594 C 1402.300781 1346.75 1401.679688 1346.050781 1400.609375 1346.109375 L 1309.148438 1349.941406 C 1308.320312 1349.941406 1307.328125 1350.421875 1306.578125 1351.191406 C 1305.820312 1351.960938 1305.421875 1352.898438 1305.519531 1353.628906 C 1305.628906 1354.371094 1306.230469 1354.78125 1307.089844 1354.710938 L 1398.539062 1350.878906 C 1398.929688 1350.878906 1399.351562 1350.769531 1399.78125 1350.570312 "/>
<path fill-rule="nonzero" fill="rgb(100%, 100%, 100%)" fill-opacity="1" d="M 1399.78125 1339.03125 C 1400.949219 1338.46875 1401.910156 1337.328125 1402.109375 1336.269531 C 1402.300781 1335.210938 1401.679688 1334.511719 1400.609375 1334.570312 L 1309.148438 1338.398438 C 1308.320312 1338.398438 1307.328125 1338.878906 1306.570312 1339.648438 C 1305.808594 1340.421875 1305.398438 1341.359375 1305.511719 1342.101562 C 1305.621094 1342.828125 1306.230469 1343.25 1307.089844 1343.171875 L 1398.539062 1339.351562 C 1398.929688 1339.328125 1399.351562 1339.21875 1399.78125 1339.019531 "/>
<path fill-rule="nonzero" fill="rgb(96.09375%, 83.201599%, 47.459412%)" fill-opacity="1" d="M 415.550781 1695.085938 L 234 1634.386719 L 512.566406 915.679688 L 693.4375 978.148438 L 415.550781 1695.085938 "/>
<path fill-rule="nonzero" fill="rgb(100%, 100%, 100%)" fill-opacity="1" d="M 566.695312 1015.441406 C 574.875 1018.039062 582.933594 1021.960938 590.363281 1027.179688 C 619.59375 1047.730469 629.746094 1080.988281 613.050781 1102.679688 C 612.863281 1103.089844 612.625 1103.46875 612.332031 1103.828125 C 594.425781 1125.480469 554.738281 1125.53125 525.015625 1104.628906 C 495.289062 1083.730469 485.128906 1049.628906 503.035156 1027.96875 C 516.464844 1011.730469 542.152344 1007.660156 566.695312 1015.441406 Z M 563.253906 1027.808594 C 545.089844 1021.851562 526.847656 1025 517.050781 1036.839844 C 503.988281 1052.640625 511.382812 1078.878906 534.285156 1094.980469 C 557.1875 1111.078125 585.261719 1110.761719 598.324219 1094.96875 C 611.382812 1079.171875 603.976562 1052.921875 581.078125 1036.828125 C 575.355469 1032.800781 569.3125 1029.800781 563.253906 1027.808594 "/>
<path fill-rule="nonzero" fill="rgb(100%, 100%, 100%)" fill-opacity="1" d="M 362.019531 1445.089844 C 359.027344 1442.640625 357.097656 1438.390625 357.429688 1434.96875 C 357.761719 1431.539062 360.261719 1429.921875 363.378906 1431.101562 L 449.019531 1462.140625 C 451.363281 1462.921875 453.671875 1465.179688 455.050781 1468.03125 C 456.429688 1470.878906 456.660156 1473.878906 455.660156 1475.871094 C 454.65625 1477.859375 452.578125 1478.519531 450.222656 1477.601562 L 364.59375 1446.570312 C 363.730469 1446.269531 362.859375 1445.761719 362.035156 1445.070312 "/>
<path fill-rule="nonzero" fill="rgb(100%, 100%, 100%)" fill-opacity="1" d="M 373.511719 1411.230469 C 372.515625 1410.421875 371.871094 1409 371.984375 1407.859375 C 372.097656 1406.71875 372.929688 1406.179688 373.96875 1406.570312 L 459.601562 1437.609375 C 460.390625 1437.851562 461.171875 1438.609375 461.644531 1439.570312 C 462.113281 1440.53125 462.191406 1441.539062 461.847656 1442.210938 C 461.503906 1442.871094 460.796875 1443.078125 460 1442.761719 L 374.371094 1411.730469 C 374.082031 1411.628906 373.789062 1411.460938 373.511719 1411.230469 "/>
<path fill-rule="nonzero" fill="rgb(100%, 100%, 100%)" fill-opacity="1" d="M 377.269531 1400.269531 C 376.273438 1399.460938 375.632812 1398.039062 375.742188 1396.898438 C 375.855469 1395.761719 376.6875 1395.21875 377.726562 1395.609375 L 463.355469 1426.640625 C 464.140625 1426.890625 464.921875 1427.648438 465.386719 1428.601562 C 465.855469 1429.558594 465.933594 1430.570312 465.59375 1431.238281 C 465.253906 1431.898438 464.550781 1432.121094 463.761719 1431.800781 L 378.128906 1400.769531 C 377.84375 1400.671875 377.550781 1400.5 377.269531 1400.28125 "/>
<path fill-rule="nonzero" fill="rgb(100%, 100%, 100%)" fill-opacity="1" d="M 381.027344 1389.308594 C 380.03125 1388.488281 379.386719 1387.078125 379.5 1385.941406 C 379.609375 1384.789062 380.445312 1384.25 381.484375 1384.648438 L 467.117188 1415.679688 C 467.902344 1415.929688 468.6875 1416.679688 469.15625 1417.640625 C 469.628906 1418.601562 469.707031 1419.609375 469.367188 1420.28125 C 469.023438 1420.949219 468.316406 1421.160156 467.519531 1420.828125 L 381.890625 1389.800781 C 381.601562 1389.699219 381.308594 1389.539062 381.03125 1389.308594 "/>
<path fill-rule="nonzero" fill="rgb(100%, 100%, 100%)" fill-opacity="1" d="M 397.433594 1340.679688 C 396.507812 1339.800781 395.964844 1338.429688 396.121094 1337.359375 C 396.28125 1336.300781 397.097656 1335.808594 398.097656 1336.199219 L 483.726562 1367.230469 C 484.519531 1367.46875 485.304688 1368.21875 485.773438 1369.191406 C 486.242188 1370.148438 486.320312 1371.160156 485.980469 1371.828125 C 485.636719 1372.5 484.925781 1372.710938 484.128906 1372.378906 L 398.496094 1341.351562 C 398.136719 1341.21875 397.769531 1340.988281 397.433594 1340.679688 "/>
<path fill-rule="nonzero" fill="rgb(100%, 100%, 100%)" fill-opacity="1" d="M 401.191406 1329.710938 C 400.265625 1328.839844 399.71875 1327.460938 399.878906 1326.398438 C 400.035156 1325.328125 400.855469 1324.851562 401.855469 1325.230469 L 487.488281 1356.261719 C 488.273438 1356.511719 489.054688 1357.261719 489.523438 1358.21875 C 489.992188 1359.179688 490.070312 1360.191406 489.730469 1360.859375 C 489.390625 1361.519531 488.683594 1361.738281 487.890625 1361.410156 L 402.261719 1330.390625 C 401.898438 1330.261719 401.53125 1330.03125 401.195312 1329.710938 "/>
<path fill-rule="nonzero" fill="rgb(100%, 100%, 100%)" fill-opacity="1" d="M 404.949219 1318.75 C 404.023438 1317.871094 403.480469 1316.5 403.640625 1315.441406 C 403.796875 1314.371094 404.613281 1313.890625 405.613281 1314.269531 L 491.246094 1345.300781 C 492.03125 1345.550781 492.816406 1346.300781 493.28125 1347.261719 C 493.75 1348.21875 493.828125 1349.230469 493.488281 1349.898438 C 493.144531 1350.570312 492.4375 1350.78125 491.644531 1350.449219 L 406.015625 1319.421875 C 405.652344 1319.300781 405.289062 1319.070312 404.953125 1318.75 "/>
<path fill-rule="nonzero" fill="rgb(96.09375%, 83.201599%, 47.459412%)" fill-opacity="1" d="M 1665.148438 2109.414062 L 1664.179688 1896.984375 L 859.421875 1896.816406 L 862.367188 2109.25 L 1665.148438 2109.414062 "/>
<path fill-rule="nonzero" fill="rgb(100%, 100%, 100%)" fill-opacity="1" d="M 965.585938 1991.621094 C 965.386719 2001.148438 966.484375 2011.054688 969.03125 2020.8125 C 979.0625 2059.214844 1007.441406 2082.65625 1033.589844 2073.660156 C 1034.039062 2073.621094 1034.480469 2073.519531 1034.910156 2073.355469 C 1061.421875 2063.078125 1074.449219 2021.761719 1064.261719 1982.71875 C 1054.058594 1943.671875 1024.871094 1919.894531 998.367188 1930.164062 C 978.488281 1937.867188 966.195312 1963.046875 965.589844 1991.621094 Z M 978.507812 1992.824219 C 978.765625 1971.597656 987.738281 1953.816406 1002.238281 1948.195312 C 1021.570312 1940.703125 1044.171875 1958.558594 1052.019531 1988.644531 C 1059.878906 2018.722656 1050.378906 2047.84375 1031.050781 2055.335938 C 1011.71875 2062.828125 989.121094 2044.957031 981.265625 2014.878906 C 979.300781 2007.355469 978.417969 1999.902344 978.507812 1992.824219 "/>
<path fill-rule="nonzero" fill="rgb(100%, 100%, 100%)" fill-opacity="1" d="M 1476.089844 1952.753906 C 1474.640625 1948.722656 1471.140625 1945.164062 1467.75 1944.277344 C 1464.359375 1943.394531 1462.039062 1945.433594 1462.230469 1949.136719 L 1466.109375 2050.332031 C 1466.148438 2053.078125 1467.609375 2056.324219 1469.941406 2058.804688 C 1472.269531 2061.289062 1475.078125 2062.617188 1477.300781 2062.277344 C 1479.519531 2061.941406 1480.78125 2059.984375 1480.609375 2057.175781 L 1476.730469 1955.992188 C 1476.699219 1954.976562 1476.480469 1953.875 1476.078125 1952.757812 "/>
<path fill-rule="nonzero" fill="rgb(100%, 100%, 100%)" fill-opacity="1" d="M 1440.058594 1952.621094 C 1439.578125 1951.28125 1438.410156 1950.09375 1437.28125 1949.800781 C 1436.148438 1949.507812 1435.378906 1950.1875 1435.441406 1951.421875 L 1439.320312 2052.609375 C 1439.308594 2053.527344 1439.800781 2054.625 1440.578125 2055.464844 C 1441.359375 2056.304688 1442.320312 2056.753906 1443.058594 2056.632812 C 1443.800781 2056.515625 1444.21875 2055.84375 1444.148438 2054.890625 L 1440.269531 1953.703125 C 1440.269531 1953.367188 1440.199219 1952.996094 1440.070312 1952.621094 "/>
<path fill-rule="nonzero" fill="rgb(100%, 100%, 100%)" fill-opacity="1" d="M 1428.378906 1952.621094 C 1427.898438 1951.277344 1426.730469 1950.09375 1425.601562 1949.800781 C 1424.46875 1949.503906 1423.699219 1950.1875 1423.769531 1951.421875 L 1427.640625 2052.605469 C 1427.640625 2053.523438 1428.128906 2054.613281 1428.910156 2055.449219 C 1429.691406 2056.285156 1430.628906 2056.730469 1431.378906 2056.613281 C 1432.121094 2056.496094 1432.539062 2055.835938 1432.46875 2054.886719 L 1428.601562 1953.703125 C 1428.589844 1953.363281 1428.519531 1952.996094 1428.390625 1952.621094 "/>
<path fill-rule="nonzero" fill="rgb(100%, 100%, 100%)" fill-opacity="1" d="M 1416.710938 1952.617188 C 1416.21875 1951.273438 1415.058594 1950.089844 1413.929688 1949.796875 C 1412.800781 1949.5 1412.019531 1950.183594 1412.089844 1951.414062 L 1415.960938 2052.601562 C 1415.960938 2053.519531 1416.449219 2054.609375 1417.230469 2055.445312 C 1418.011719 2056.28125 1418.960938 2056.730469 1419.699219 2056.613281 C 1420.441406 2056.496094 1420.859375 2055.828125 1420.789062 2054.882812 L 1416.921875 1953.695312 C 1416.910156 1953.359375 1416.839844 1952.988281 1416.710938 1952.613281 "/>
<path fill-rule="nonzero" fill="rgb(100%, 100%, 100%)" fill-opacity="1" d="M 1364.980469 1952.324219 C 1364.421875 1951.035156 1363.261719 1949.96875 1362.191406 1949.753906 C 1361.121094 1949.53125 1360.410156 1950.21875 1360.46875 1951.40625 L 1364.351562 2052.589844 C 1364.339844 2053.511719 1364.828125 2054.609375 1365.609375 2055.453125 C 1366.390625 2056.296875 1367.351562 2056.746094 1368.089844 2056.625 C 1368.839844 2056.503906 1369.25 2055.828125 1369.179688 2054.871094 L 1365.300781 1953.6875 C 1365.289062 1953.261719 1365.179688 1952.792969 1364.980469 1952.324219 "/>
<path fill-rule="nonzero" fill="rgb(100%, 100%, 100%)" fill-opacity="1" d="M 1353.300781 1952.320312 C 1352.738281 1951.03125 1351.589844 1949.964844 1350.511719 1949.746094 C 1349.441406 1949.527344 1348.730469 1950.210938 1348.789062 1951.402344 L 1352.671875 2052.589844 C 1352.671875 2053.503906 1353.160156 2054.597656 1353.941406 2055.433594 C 1354.71875 2056.269531 1355.660156 2056.71875 1356.410156 2056.601562 C 1357.148438 2056.484375 1357.570312 2055.816406 1357.5 2054.867188 L 1353.628906 1953.6875 C 1353.621094 1953.257812 1353.511719 1952.789062 1353.300781 1952.320312 "/>
<path fill-rule="nonzero" fill="rgb(100%, 100%, 100%)" fill-opacity="1" d="M 1341.628906 1952.320312 C 1341.058594 1951.027344 1339.910156 1949.964844 1338.839844 1949.746094 C 1337.761719 1949.527344 1337.050781 1950.210938 1337.121094 1951.402344 L 1340.988281 2052.585938 C 1340.988281 2053.503906 1341.46875 2054.601562 1342.261719 2055.441406 C 1343.039062 2056.28125 1343.988281 2056.730469 1344.730469 2056.613281 C 1345.480469 2056.492188 1345.898438 2055.820312 1345.820312 2054.867188 L 1341.949219 1953.683594 C 1341.941406 1953.257812 1341.828125 1952.789062 1341.621094 1952.320312 "/>
<path fill-rule="nonzero" fill="rgb(50.193787%, 70.117188%, 100%)" fill-opacity="1" d="M 862.90625 2109.890625 L 863.109375 1897.460938 L 58.355469 1897.289062 L 60.132812 2109.722656 L 862.90625 2109.890625 "/>
<path fill-rule="nonzero" fill="rgb(100%, 100%, 100%)" fill-opacity="1" d="M 164.679688 1996.667969 C 164.230469 2006.191406 165.066406 2016.097656 167.355469 2025.855469 C 176.378906 2064.296875 204.191406 2087.765625 230.601562 2078.691406 C 231.023438 2078.65625 231.441406 2078.558594 231.851562 2078.40625 C 258.632812 2068.160156 272.75 2026.804688 263.585938 1987.757812 C 254.421875 1948.714844 225.855469 1924.945312 199.082031 1935.21875 C 178.996094 1942.902344 166.039062 1968.085938 164.679688 1996.664062 Z M 177.566406 1997.871094 C 178.390625 1976.640625 187.832031 1958.859375 202.476562 1953.242188 C 222.007812 1945.765625 244.132812 1963.617188 251.195312 1993.699219 C 258.257812 2023.78125 247.992188 2052.886719 228.464844 2060.378906 C 208.933594 2067.851562 186.808594 2050.003906 179.746094 2019.921875 C 177.980469 2012.402344 177.296875 2004.945312 177.566406 1997.871094 "/>
<path fill-rule="nonzero" fill="rgb(100%, 100%, 100%)" fill-opacity="1" d="M 673.542969 1953.230469 C 672.207031 1949.203125 668.796875 1945.644531 665.429688 1944.761719 C 662.0625 1943.875 659.691406 1945.917969 659.78125 1949.617188 L 660.984375 2050.800781 C 660.976562 2053.542969 662.363281 2056.765625 664.613281 2059.226562 C 666.863281 2061.6875 669.628906 2063.007812 671.84375 2062.683594 C 674.0625 2062.355469 675.386719 2060.429688 675.308594 2057.648438 L 674.101562 1956.460938 C 674.101562 1955.445312 673.914062 1954.347656 673.542969 1953.230469 "/>
<path fill-rule="nonzero" fill="rgb(100%, 100%, 100%)" fill-opacity="1" d="M 637.421875 1952.820312 C 636.898438 1951.527344 635.769531 1950.457031 634.703125 1950.234375 C 633.632812 1950.011719 632.898438 1950.695312 632.933594 1951.886719 L 634.136719 2053.074219 C 634.113281 2053.988281 634.570312 2055.078125 635.328125 2055.917969 C 636.085938 2056.753906 637.019531 2057.203125 637.769531 2057.085938 C 638.511719 2056.96875 638.949219 2056.304688 638.90625 2055.359375 L 637.703125 1954.171875 C 637.699219 1953.75 637.601562 1953.285156 637.410156 1952.824219 "/>
<path fill-rule="nonzero" fill="rgb(100%, 100%, 100%)" fill-opacity="1" d="M 625.746094 1952.820312 C 625.21875 1951.527344 624.09375 1950.457031 623.023438 1950.234375 C 621.953125 1950.011719 621.222656 1950.695312 621.257812 1951.886719 L 622.460938 2053.074219 C 622.429688 2053.992188 622.882812 2055.09375 623.644531 2055.941406 C 624.40625 2056.785156 625.351562 2057.238281 626.101562 2057.113281 C 626.851562 2056.992188 627.285156 2056.3125 627.230469 2055.351562 L 626.027344 1954.171875 C 626.027344 1953.75 625.925781 1953.285156 625.738281 1952.824219 "/>
<path fill-rule="nonzero" fill="rgb(100%, 100%, 100%)" fill-opacity="1" d="M 614.066406 1952.8125 C 613.539062 1951.523438 612.414062 1950.460938 611.347656 1950.242188 C 610.28125 1950.023438 609.550781 1950.707031 609.585938 1951.894531 L 610.789062 2053.078125 C 610.761719 2053.996094 611.21875 2055.09375 611.980469 2055.933594 C 612.738281 2056.773438 613.675781 2057.222656 614.421875 2057.101562 C 615.171875 2056.984375 615.605469 2056.316406 615.558594 2055.363281 L 614.355469 1954.175781 C 614.351562 1953.753906 614.253906 1953.292969 614.0625 1952.828125 "/>
<path fill-rule="nonzero" fill="rgb(100%, 100%, 100%)" fill-opacity="1" d="M 562.453125 1952.804688 C 561.929688 1951.511719 560.804688 1950.441406 559.734375 1950.21875 C 558.664062 1949.996094 557.933594 1950.683594 557.964844 1951.875 L 559.171875 2053.0625 C 559.148438 2053.980469 559.605469 2055.070312 560.363281 2055.910156 C 561.121094 2056.746094 562.058594 2057.195312 562.804688 2057.074219 C 563.550781 2056.957031 563.988281 2056.292969 563.941406 2055.34375 L 562.734375 1954.15625 C 562.734375 1953.734375 562.632812 1953.273438 562.445312 1952.8125 "/>
<path fill-rule="nonzero" fill="rgb(100%, 100%, 100%)" fill-opacity="1" d="M 550.777344 1952.800781 C 550.253906 1951.507812 549.128906 1950.4375 548.058594 1950.21875 C 546.988281 1949.996094 546.257812 1950.679688 546.289062 1951.871094 L 547.496094 2053.058594 C 547.472656 2053.976562 547.925781 2055.066406 548.683594 2055.90625 C 549.441406 2056.746094 550.378906 2057.195312 551.128906 2057.074219 C 551.871094 2056.960938 552.3125 2056.292969 552.265625 2055.34375 L 551.070312 1954.15625 C 551.070312 1953.738281 550.972656 1953.273438 550.78125 1952.8125 "/>
<path fill-rule="nonzero" fill="rgb(100%, 100%, 100%)" fill-opacity="1" d="M 539.101562 1952.800781 C 538.578125 1951.503906 537.449219 1950.433594 536.378906 1950.210938 C 535.3125 1949.988281 534.578125 1950.675781 534.613281 1951.867188 L 535.816406 2053.054688 C 535.8125 2053.96875 536.273438 2055.050781 537.027344 2055.875 C 537.777344 2056.699219 538.703125 2057.140625 539.445312 2057.027344 C 540.1875 2056.917969 540.628906 2056.269531 540.597656 2055.335938 L 539.390625 1954.148438 C 539.390625 1953.730469 539.292969 1953.265625 539.101562 1952.800781 "/>
<path fill-rule="nonzero" fill="rgb(0%, 19.993591%, 50.193787%)" fill-opacity="1" d="M 998.984375 1897.8125 L 998.015625 1685.382812 L 193.257812 1685.210938 L 196.203125 1897.644531 L 998.984375 1897.8125 "/>
<path fill-rule="nonzero" fill="rgb(100%, 100%, 100%)" fill-opacity="1" d="M 299.429688 1780.015625 C 299.230469 1789.542969 300.328125 1799.449219 302.875 1809.210938 C 312.902344 1847.605469 341.28125 1871.054688 367.429688 1862.054688 C 367.878906 1862.019531 368.324219 1861.914062 368.753906 1861.75 C 395.257812 1851.476562 408.285156 1810.15625 398.09375 1771.113281 C 387.898438 1732.066406 358.710938 1708.285156 332.207031 1718.558594 C 312.328125 1726.261719 300.035156 1751.441406 299.429688 1780.015625 Z M 312.347656 1781.21875 C 312.609375 1759.992188 321.582031 1742.210938 336.078125 1736.589844 C 355.40625 1729.097656 378.007812 1746.953125 385.863281 1777.035156 C 393.714844 1807.117188 384.21875 1836.238281 364.890625 1843.730469 C 345.5625 1851.222656 322.960938 1833.351562 315.105469 1803.269531 C 313.144531 1795.753906 312.261719 1788.296875 312.347656 1781.21875 "/>
<path fill-rule="nonzero" fill="rgb(100%, 100%, 100%)" fill-opacity="1" d="M 809.921875 1741.148438 C 808.480469 1737.117188 804.976562 1733.558594 801.585938 1732.675781 C 798.195312 1731.789062 795.875 1733.828125 796.066406 1737.53125 L 799.945312 1838.726562 C 799.988281 1841.472656 801.457031 1844.710938 803.78125 1847.1875 C 806.105469 1849.664062 808.917969 1850.992188 811.132812 1850.65625 C 813.34375 1850.320312 814.613281 1848.371094 814.445312 1845.570312 L 810.570312 1744.386719 C 810.539062 1743.367188 810.316406 1742.269531 809.910156 1741.152344 "/>
<path fill-rule="nonzero" fill="rgb(100%, 100%, 100%)" fill-opacity="1" d="M 773.894531 1741.015625 C 773.414062 1739.675781 772.246094 1738.488281 771.117188 1738.195312 C 769.984375 1737.902344 769.214844 1738.582031 769.277344 1739.816406 L 773.152344 1841.003906 C 773.148438 1841.921875 773.636719 1843.019531 774.417969 1843.863281 C 775.199219 1844.703125 776.152344 1845.152344 776.898438 1845.03125 C 777.644531 1844.910156 778.058594 1844.238281 777.984375 1843.28125 L 774.109375 1742.097656 C 774.105469 1741.761719 774.035156 1741.390625 773.902344 1741.015625 "/>
<path fill-rule="nonzero" fill="rgb(100%, 100%, 100%)" fill-opacity="1" d="M 762.21875 1741.015625 C 761.738281 1739.671875 760.570312 1738.484375 759.4375 1738.191406 C 758.308594 1737.898438 757.535156 1738.578125 757.601562 1739.816406 L 761.476562 1841 C 761.480469 1841.914062 761.964844 1843.007812 762.746094 1843.84375 C 763.523438 1844.679688 764.472656 1845.125 765.214844 1845.007812 C 765.953125 1844.890625 766.375 1844.230469 766.308594 1843.28125 L 762.433594 1742.097656 C 762.429688 1741.757812 762.359375 1741.390625 762.226562 1741.015625 "/>
<path fill-rule="nonzero" fill="rgb(100%, 100%, 100%)" fill-opacity="1" d="M 750.542969 1741.011719 C 750.058594 1739.671875 748.894531 1738.484375 747.761719 1738.191406 C 746.632812 1737.894531 745.859375 1738.578125 745.925781 1739.8125 L 749.796875 1840.996094 C 749.796875 1841.914062 750.285156 1843.007812 751.066406 1843.84375 C 751.847656 1844.683594 752.796875 1845.132812 753.539062 1845.011719 C 754.28125 1844.894531 754.699219 1844.226562 754.628906 1843.273438 L 750.753906 1742.089844 C 750.75 1741.753906 750.679688 1741.382812 750.546875 1741.007812 "/>
<path fill-rule="nonzero" fill="rgb(100%, 100%, 100%)" fill-opacity="1" d="M 698.816406 1740.71875 C 698.253906 1739.429688 697.101562 1738.363281 696.027344 1738.144531 C 694.957031 1737.925781 694.246094 1738.613281 694.308594 1739.800781 L 698.183594 1840.984375 C 698.175781 1841.902344 698.660156 1843.003906 699.445312 1843.851562 C 700.226562 1844.695312 701.183594 1845.144531 701.929688 1845.023438 C 702.675781 1844.898438 703.089844 1844.226562 703.011719 1843.265625 L 699.140625 1742.078125 C 699.128906 1741.65625 699.019531 1741.1875 698.816406 1740.71875 "/>
<path fill-rule="nonzero" fill="rgb(100%, 100%, 100%)" fill-opacity="1" d="M 687.140625 1740.714844 C 686.578125 1739.425781 685.421875 1738.359375 684.351562 1738.140625 C 683.277344 1737.921875 682.566406 1738.605469 682.628906 1739.796875 L 686.503906 1840.980469 C 686.507812 1841.898438 686.996094 1842.988281 687.773438 1843.824219 C 688.554688 1844.660156 689.5 1845.105469 690.242188 1844.988281 C 690.984375 1844.871094 691.402344 1844.210938 691.335938 1843.261719 L 687.460938 1742.078125 C 687.453125 1741.652344 687.34375 1741.183594 687.136719 1740.714844 "/>
<path fill-rule="nonzero" fill="rgb(100%, 100%, 100%)" fill-opacity="1" d="M 675.460938 1740.714844 C 674.898438 1739.421875 673.746094 1738.359375 672.671875 1738.140625 C 671.597656 1737.921875 670.886719 1738.605469 670.953125 1739.796875 L 674.828125 1840.980469 C 674.828125 1841.898438 675.3125 1842.992188 676.09375 1843.835938 C 676.875 1844.671875 677.824219 1845.121094 678.570312 1845.003906 C 679.3125 1844.882812 679.730469 1844.214844 679.65625 1843.261719 L 675.785156 1742.078125 C 675.773438 1741.652344 675.660156 1741.183594 675.457031 1740.714844 "/>
<path fill-rule="nonzero" fill="rgb(87.109375%, 52.929688%, 52.929688%)" fill-opacity="1" d="M 682.25 1692.710938 L 874.78125 1691.800781 L 874.933594 938.371094 L 682.398438 941.128906 L 682.25 1692.710938 "/>
<path fill-rule="nonzero" fill="rgb(100%, 100%, 100%)" fill-opacity="1" d="M 789.761719 998.308594 C 781.15625 998.109375 772.199219 999.199219 763.378906 1001.71875 C 728.671875 1011.628906 707.480469 1039.671875 715.613281 1065.511719 C 715.644531 1065.949219 715.734375 1066.390625 715.886719 1066.820312 C 725.171875 1093.011719 762.519531 1105.890625 797.808594 1095.808594 C 833.101562 1085.738281 854.597656 1056.890625 845.3125 1030.699219 C 838.347656 1011.058594 815.589844 998.910156 789.761719 998.308594 Z M 788.675781 1011.078125 C 807.863281 1011.328125 823.9375 1020.199219 829.015625 1034.53125 C 835.789062 1053.628906 819.648438 1075.960938 792.457031 1083.730469 C 765.269531 1091.488281 738.945312 1082.101562 732.175781 1063 C 725.402344 1043.898438 741.554688 1021.570312 768.746094 1013.808594 C 775.539062 1011.859375 782.277344 1010.988281 788.675781 1011.078125 "/>
<path fill-rule="nonzero" fill="rgb(100%, 100%, 100%)" fill-opacity="1" d="M 824.898438 1471.890625 C 828.539062 1470.46875 831.757812 1467.011719 832.554688 1463.660156 C 833.355469 1460.308594 831.511719 1458.011719 828.164062 1458.199219 L 736.695312 1462.03125 C 734.214844 1462.078125 731.289062 1463.53125 729.054688 1465.828125 C 726.816406 1468.121094 725.617188 1470.898438 725.921875 1473.089844 C 726.222656 1475.269531 727.980469 1476.53125 730.511719 1476.359375 L 821.96875 1472.539062 C 822.886719 1472.5 823.882812 1472.28125 824.890625 1471.878906 "/>
<path fill-rule="nonzero" fill="rgb(100%, 100%, 100%)" fill-opacity="1" d="M 825.015625 1436.300781 C 826.226562 1435.820312 827.300781 1434.671875 827.566406 1433.550781 C 827.828125 1432.429688 827.214844 1431.671875 826.097656 1431.730469 L 734.636719 1435.558594 C 733.808594 1435.558594 732.820312 1436.039062 732.0625 1436.808594 C 731.304688 1437.589844 730.898438 1438.519531 731.007812 1439.261719 C 731.113281 1439.988281 731.71875 1440.410156 732.578125 1440.328125 L 824.035156 1436.511719 C 824.34375 1436.5 824.675781 1436.429688 825.011719 1436.300781 "/>
<path fill-rule="nonzero" fill="rgb(100%, 100%, 100%)" fill-opacity="1" d="M 825.015625 1424.761719 C 826.230469 1424.28125 827.300781 1423.128906 827.566406 1422.011719 C 827.832031 1420.890625 827.214844 1420.128906 826.101562 1420.191406 L 734.640625 1424.019531 C 733.8125 1424.03125 732.828125 1424.511719 732.074219 1425.28125 C 731.320312 1426.050781 730.917969 1426.980469 731.023438 1427.710938 C 731.128906 1428.449219 731.726562 1428.859375 732.578125 1428.800781 L 824.039062 1424.96875 C 824.34375 1424.960938 824.675781 1424.890625 825.015625 1424.761719 "/>
<path fill-rule="nonzero" fill="rgb(100%, 100%, 100%)" fill-opacity="1" d="M 825.019531 1413.21875 C 826.230469 1412.738281 827.304688 1411.589844 827.570312 1410.46875 C 827.835938 1409.351562 827.21875 1408.589844 826.105469 1408.648438 L 734.644531 1412.480469 C 733.816406 1412.480469 732.828125 1412.960938 732.070312 1413.730469 C 731.3125 1414.511719 730.90625 1415.441406 731.015625 1416.179688 C 731.121094 1416.910156 731.726562 1417.328125 732.585938 1417.261719 L 824.042969 1413.429688 C 824.351562 1413.421875 824.683594 1413.351562 825.019531 1413.21875 "/>
<path fill-rule="nonzero" fill="rgb(100%, 100%, 100%)" fill-opacity="1" d="M 825.285156 1362.101562 C 826.449219 1361.550781 827.410156 1360.410156 827.609375 1359.351562 C 827.808594 1358.289062 827.1875 1357.589844 826.113281 1357.648438 L 734.65625 1361.480469 C 733.824219 1361.46875 732.828125 1361.949219 732.0625 1362.71875 C 731.300781 1363.5 730.890625 1364.441406 731.003906 1365.179688 C 731.113281 1365.921875 731.726562 1366.328125 732.59375 1366.25 L 824.050781 1362.421875 C 824.4375 1362.410156 824.859375 1362.308594 825.285156 1362.109375 "/>
<path fill-rule="nonzero" fill="rgb(100%, 100%, 100%)" fill-opacity="1" d="M 825.285156 1350.558594 C 826.453125 1350.011719 827.414062 1348.871094 827.613281 1347.808594 C 827.8125 1346.75 827.191406 1346.050781 826.117188 1346.109375 L 734.65625 1349.941406 C 733.828125 1349.941406 732.84375 1350.421875 732.089844 1351.191406 C 731.332031 1351.960938 730.929688 1352.898438 731.035156 1353.628906 C 731.140625 1354.371094 731.738281 1354.78125 732.597656 1354.710938 L 824.054688 1350.878906 C 824.4375 1350.878906 824.863281 1350.769531 825.289062 1350.570312 "/>
<path fill-rule="nonzero" fill="rgb(100%, 100%, 100%)" fill-opacity="1" d="M 825.289062 1339.03125 C 826.457031 1338.46875 827.417969 1337.328125 827.617188 1336.269531 C 827.8125 1335.210938 827.191406 1334.511719 826.117188 1334.570312 L 734.660156 1338.398438 C 733.828125 1338.398438 732.839844 1338.878906 732.078125 1339.648438 C 731.320312 1340.421875 730.914062 1341.359375 731.023438 1342.101562 C 731.132812 1342.828125 731.734375 1343.25 732.597656 1343.171875 L 824.054688 1339.351562 C 824.441406 1339.328125 824.863281 1339.21875 825.285156 1339.019531 "/>
<path fill-rule="nonzero" fill="rgb(87.109375%, 52.929688%, 52.929688%)" fill-opacity="1" d="M 1800.351562 1897.8125 L 1799.378906 1685.382812 L 994.621094 1685.210938 L 997.570312 1897.644531 L 1800.351562 1897.8125 "/>
<path fill-rule="nonzero" fill="rgb(100%, 100%, 100%)" fill-opacity="1" d="M 1100.789062 1780.015625 C 1100.589844 1789.542969 1101.691406 1799.449219 1104.238281 1809.210938 C 1114.269531 1847.605469 1142.648438 1871.054688 1168.789062 1862.054688 C 1169.238281 1862.019531 1169.691406 1861.914062 1170.121094 1861.75 C 1196.621094 1851.476562 1209.648438 1810.15625 1199.460938 1771.113281 C 1189.261719 1732.066406 1160.070312 1708.285156 1133.570312 1718.558594 C 1113.691406 1726.261719 1101.398438 1751.441406 1100.789062 1780.015625 Z M 1113.710938 1781.21875 C 1113.96875 1759.992188 1122.949219 1742.210938 1137.441406 1736.589844 C 1156.769531 1729.097656 1179.371094 1746.953125 1187.230469 1777.035156 C 1195.078125 1807.117188 1185.578125 1836.238281 1166.261719 1843.730469 C 1146.929688 1851.222656 1124.328125 1833.351562 1116.46875 1803.269531 C 1114.511719 1795.753906 1113.628906 1788.296875 1113.710938 1781.21875 "/>
<path fill-rule="nonzero" fill="rgb(100%, 100%, 100%)" fill-opacity="1" d="M 1611.289062 1741.148438 C 1609.839844 1737.117188 1606.339844 1733.558594 1602.949219 1732.675781 C 1599.558594 1731.789062 1597.238281 1733.828125 1597.429688 1737.53125 L 1601.308594 1838.726562 C 1601.351562 1841.472656 1602.820312 1844.710938 1605.140625 1847.1875 C 1607.46875 1849.664062 1610.28125 1850.992188 1612.5 1850.65625 C 1614.710938 1850.320312 1615.980469 1848.371094 1615.808594 1845.570312 L 1611.929688 1744.386719 C 1611.898438 1743.367188 1611.679688 1742.269531 1611.28125 1741.152344 "/>
<path fill-rule="nonzero" fill="rgb(100%, 100%, 100%)" fill-opacity="1" d="M 1575.261719 1741.015625 C 1574.78125 1739.675781 1573.609375 1738.488281 1572.480469 1738.195312 C 1571.351562 1737.902344 1570.578125 1738.582031 1570.640625 1739.816406 L 1574.519531 1841.003906 C 1574.511719 1841.921875 1575 1843.019531 1575.78125 1843.863281 C 1576.558594 1844.703125 1577.519531 1845.152344 1578.261719 1845.03125 C 1579.011719 1844.910156 1579.421875 1844.238281 1579.351562 1843.28125 L 1575.46875 1742.097656 C 1575.46875 1741.761719 1575.398438 1741.390625 1575.269531 1741.015625 "/>
<path fill-rule="nonzero" fill="rgb(100%, 100%, 100%)" fill-opacity="1" d="M 1563.578125 1741.015625 C 1563.101562 1739.671875 1561.929688 1738.484375 1560.800781 1738.191406 C 1559.671875 1737.898438 1558.898438 1738.578125 1558.96875 1739.816406 L 1562.839844 1841 C 1562.839844 1841.914062 1563.328125 1843.007812 1564.109375 1843.84375 C 1564.890625 1844.679688 1565.828125 1845.125 1566.578125 1845.007812 C 1567.320312 1844.890625 1567.738281 1844.230469 1567.671875 1843.28125 L 1563.800781 1742.097656 C 1563.789062 1741.757812 1563.71875 1741.390625 1563.589844 1741.015625 "/>
<path fill-rule="nonzero" fill="rgb(100%, 100%, 100%)" fill-opacity="1" d="M 1551.910156 1741.011719 C 1551.421875 1739.671875 1550.261719 1738.484375 1549.128906 1738.191406 C 1548 1737.894531 1547.21875 1738.578125 1547.289062 1739.8125 L 1551.160156 1840.996094 C 1551.160156 1841.914062 1551.648438 1843.007812 1552.429688 1843.84375 C 1553.210938 1844.683594 1554.160156 1845.132812 1554.898438 1845.011719 C 1555.648438 1844.894531 1556.058594 1844.226562 1555.988281 1843.273438 L 1552.121094 1742.089844 C 1552.109375 1741.753906 1552.039062 1741.382812 1551.910156 1741.007812 "/>
<path fill-rule="nonzero" fill="rgb(100%, 100%, 100%)" fill-opacity="1" d="M 1500.179688 1740.71875 C 1499.621094 1739.429688 1498.460938 1738.363281 1497.390625 1738.144531 C 1496.320312 1737.925781 1495.609375 1738.613281 1495.671875 1739.800781 L 1499.550781 1840.984375 C 1499.539062 1841.902344 1500.019531 1843.003906 1500.808594 1843.851562 C 1501.589844 1844.695312 1502.550781 1845.144531 1503.289062 1845.023438 C 1504.039062 1844.898438 1504.460938 1844.222656 1504.378906 1843.265625 L 1500.5 1742.078125 C 1500.488281 1741.65625 1500.378906 1741.1875 1500.179688 1740.71875 "/>
<path fill-rule="nonzero" fill="rgb(100%, 100%, 100%)" fill-opacity="1" d="M 1488.5 1740.714844 C 1487.941406 1739.425781 1486.789062 1738.359375 1485.710938 1738.140625 C 1484.640625 1737.921875 1483.929688 1738.605469 1483.988281 1739.796875 L 1487.871094 1840.980469 C 1487.871094 1841.898438 1488.359375 1842.988281 1489.140625 1843.824219 C 1489.921875 1844.660156 1490.859375 1845.105469 1491.609375 1844.988281 C 1492.351562 1844.871094 1492.769531 1844.210938 1492.699219 1843.261719 L 1488.828125 1742.078125 C 1488.820312 1741.652344 1488.710938 1741.183594 1488.5 1740.714844 "/>
<path fill-rule="nonzero" fill="rgb(100%, 100%, 100%)" fill-opacity="1" d="M 1476.828125 1740.714844 C 1476.261719 1739.421875 1475.109375 1738.359375 1474.039062 1738.140625 C 1472.960938 1737.921875 1472.25 1738.605469 1472.320312 1739.796875 L 1476.191406 1840.980469 C 1476.191406 1841.898438 1476.679688 1842.992188 1477.460938 1843.835938 C 1478.238281 1844.671875 1479.191406 1845.121094 1479.929688 1845.003906 C 1480.679688 1844.882812 1481.101562 1844.214844 1481.019531 1843.261719 L 1477.148438 1742.078125 C 1477.140625 1741.652344 1477.03125 1741.183594 1476.820312 1740.714844 "/>
<path fill-rule="nonzero" fill="rgb(80.076599%, 80.076599%, 80.076599%)" fill-opacity="1" d="M 1065.851562 1692.710938 L 1258.378906 1691.800781 L 1258.539062 938.371094 L 1066 941.128906 L 1065.851562 1692.710938 "/>
<path fill-rule="nonzero" fill="rgb(100%, 100%, 100%)" fill-opacity="1" d="M 1172.328125 998.308594 C 1163.71875 998.109375 1154.761719 999.199219 1145.941406 1001.71875 C 1111.238281 1011.628906 1090.050781 1039.671875 1098.179688 1065.511719 C 1098.210938 1065.949219 1098.300781 1066.390625 1098.449219 1066.820312 C 1107.738281 1093.011719 1145.078125 1105.890625 1180.371094 1095.808594 C 1215.660156 1085.738281 1237.160156 1056.890625 1227.871094 1030.699219 C 1220.910156 1011.058594 1198.148438 998.910156 1172.320312 998.308594 Z M 1171.238281 1011.078125 C 1190.429688 1011.328125 1206.5 1020.199219 1211.578125 1034.53125 C 1218.351562 1053.628906 1202.210938 1075.960938 1175.019531 1083.730469 C 1147.828125 1091.488281 1121.511719 1082.101562 1114.738281 1063 C 1107.96875 1043.898438 1124.121094 1021.570312 1151.308594 1013.808594 C 1158.101562 1011.859375 1164.839844 1010.988281 1171.238281 1011.078125 "/>
<path fill-rule="nonzero" fill="rgb(100%, 100%, 100%)" fill-opacity="1" d="M 1207.460938 1471.890625 C 1211.101562 1470.46875 1214.320312 1467.011719 1215.121094 1463.660156 C 1215.921875 1460.308594 1214.070312 1458.019531 1210.730469 1458.199219 L 1119.261719 1462.03125 C 1116.78125 1462.078125 1113.851562 1463.53125 1111.609375 1465.828125 C 1109.371094 1468.121094 1108.171875 1470.898438 1108.480469 1473.089844 C 1108.78125 1475.28125 1110.539062 1476.53125 1113.078125 1476.359375 L 1204.53125 1472.539062 C 1205.449219 1472.5 1206.441406 1472.28125 1207.449219 1471.878906 "/>
<path fill-rule="nonzero" fill="rgb(100%, 100%, 100%)" fill-opacity="1" d="M 1207.578125 1436.300781 C 1208.789062 1435.820312 1209.859375 1434.671875 1210.128906 1433.550781 C 1210.390625 1432.429688 1209.78125 1431.671875 1208.660156 1431.730469 L 1117.199219 1435.558594 C 1116.371094 1435.558594 1115.378906 1436.039062 1114.628906 1436.808594 C 1113.871094 1437.589844 1113.460938 1438.519531 1113.570312 1439.261719 C 1113.679688 1440 1114.28125 1440.410156 1115.148438 1440.328125 L 1206.601562 1436.511719 C 1206.898438 1436.5 1207.238281 1436.429688 1207.570312 1436.300781 "/>
<path fill-rule="nonzero" fill="rgb(100%, 100%, 100%)" fill-opacity="1" d="M 1207.578125 1424.761719 C 1208.789062 1424.28125 1209.859375 1423.128906 1210.128906 1422.011719 C 1210.390625 1420.890625 1209.78125 1420.128906 1208.660156 1420.191406 L 1117.210938 1424.019531 C 1116.378906 1424.03125 1115.398438 1424.511719 1114.640625 1425.28125 C 1113.890625 1426.050781 1113.488281 1426.980469 1113.589844 1427.710938 C 1113.699219 1428.449219 1114.289062 1428.859375 1115.148438 1428.800781 L 1206.601562 1424.96875 C 1206.910156 1424.960938 1207.238281 1424.890625 1207.578125 1424.761719 "/>
<path fill-rule="nonzero" fill="rgb(100%, 100%, 100%)" fill-opacity="1" d="M 1207.578125 1413.21875 C 1208.789062 1412.738281 1209.871094 1411.589844 1210.128906 1410.46875 C 1210.398438 1409.351562 1209.78125 1408.589844 1208.671875 1408.648438 L 1117.210938 1412.480469 C 1116.378906 1412.480469 1115.398438 1412.96875 1114.640625 1413.738281 C 1113.878906 1414.511719 1113.480469 1415.441406 1113.589844 1416.179688 C 1113.691406 1416.910156 1114.289062 1417.328125 1115.148438 1417.261719 L 1206.609375 1413.429688 C 1206.910156 1413.421875 1207.238281 1413.351562 1207.578125 1413.21875 "/>
<path fill-rule="nonzero" fill="rgb(100%, 100%, 100%)" fill-opacity="1" d="M 1207.839844 1362.101562 C 1209.011719 1361.550781 1209.96875 1360.410156 1210.171875 1359.351562 C 1210.371094 1358.289062 1209.75 1357.589844 1208.679688 1357.648438 L 1117.21875 1361.480469 C 1116.390625 1361.46875 1115.398438 1361.949219 1114.628906 1362.71875 C 1113.871094 1363.5 1113.460938 1364.441406 1113.570312 1365.179688 C 1113.679688 1365.921875 1114.289062 1366.328125 1115.160156 1366.25 L 1206.609375 1362.421875 C 1207 1362.421875 1207.421875 1362.308594 1207.839844 1362.109375 "/>
<path fill-rule="nonzero" fill="rgb(100%, 100%, 100%)" fill-opacity="1" d="M 1207.851562 1350.558594 C 1209.019531 1350.011719 1209.980469 1348.871094 1210.179688 1347.808594 C 1210.371094 1346.75 1209.75 1346.050781 1208.679688 1346.109375 L 1117.230469 1349.941406 C 1116.398438 1349.941406 1115.410156 1350.421875 1114.648438 1351.191406 C 1113.898438 1351.960938 1113.488281 1352.898438 1113.601562 1353.628906 C 1113.710938 1354.371094 1114.308594 1354.78125 1115.160156 1354.710938 L 1206.621094 1350.878906 C 1207 1350.878906 1207.421875 1350.769531 1207.851562 1350.558594 "/>
<path fill-rule="nonzero" fill="rgb(100%, 100%, 100%)" fill-opacity="1" d="M 1207.851562 1339.03125 C 1209.019531 1338.46875 1209.980469 1337.328125 1210.179688 1336.269531 C 1210.371094 1335.210938 1209.75 1334.511719 1208.679688 1334.570312 L 1117.230469 1338.398438 C 1116.398438 1338.398438 1115.398438 1338.878906 1114.640625 1339.648438 C 1113.878906 1340.421875 1113.480469 1341.359375 1113.589844 1342.101562 C 1113.691406 1342.839844 1114.300781 1343.25 1115.171875 1343.171875 L 1206.621094 1339.351562 C 1207 1339.328125 1207.421875 1339.21875 1207.851562 1339.019531 "/>
<path fill-rule="nonzero" fill="rgb(92.576599%, 63.084412%, 30.979919%)" fill-opacity="1" d="M 3057.589844 1762.554688 C 3058.171875 1762.09375 3056.890625 1761.773438 3056.28125 1761.378906 L 2763.140625 1571.726562 L 2458.621094 1761.378906 C 2458.019531 1761.753906 2456.789062 1762.160156 2457.308594 1762.554688 L 2765.699219 1995.195312 L 3057.589844 1762.554688 "/>
<path fill-rule="nonzero" fill="rgb(94.921875%, 94.921875%, 94.921875%)" fill-opacity="1" d="M 2980.921875 1383.859375 L 2975.871094 1385.21875 C 2974.570312 1385.089844 2973.261719 1385.019531 2971.929688 1385.019531 L 2545.171875 1385.019531 C 2521.679688 1385.019531 2502.769531 1405.980469 2502.769531 1432.019531 L 2502.769531 1911.402344 C 2502.769531 1937.445312 2521.679688 1958.410156 2545.171875 1958.410156 L 2971.929688 1958.410156 C 2995.421875 1958.410156 3014.328125 1937.445312 3014.328125 1911.402344 L 3014.328125 1432.019531 C 3014.328125 1430.519531 3014.269531 1429.019531 3014.140625 1427.550781 L 3066.179688 1398.839844 L 3044.589844 1384.628906 L 2980.921875 1383.859375 "/>
<path fill-rule="nonzero" fill="rgb(94.921875%, 94.921875%, 94.921875%)" fill-opacity="1" d="M 3049.820312 1384.628906 C 3030.128906 1384.628906 3014.160156 1403.640625 3014.160156 1427.089844 C 3014.160156 1427.441406 3014.171875 1427.789062 3014.191406 1428.140625 L 3085.441406 1428.140625 C 3085.460938 1427.789062 3085.480469 1427.441406 3085.488281 1427.089844 C 3085.488281 1403.640625 3069.519531 1384.628906 3049.820312 1384.628906 "/>
<path fill-rule="nonzero" fill="rgb(94.921875%, 94.921875%, 94.921875%)" fill-opacity="1" d="M 2968.859375 1551.644531 L 2604.71875 1551.539062 C 2603.429688 1551.519531 2602.230469 1552.195312 2601.570312 1553.308594 C 2600.921875 1554.421875 2600.910156 1555.800781 2601.558594 1556.917969 C 2602.210938 1558.035156 2603.410156 1558.71875 2604.699219 1558.707031 L 2968.839844 1558.8125 C 2970.128906 1558.835938 2971.328125 1558.160156 2971.988281 1557.050781 C 2972.648438 1555.933594 2972.648438 1554.554688 2972.011719 1553.433594 C 2971.359375 1552.316406 2970.160156 1551.632812 2968.871094 1551.644531 "/>
<path fill-rule="nonzero" fill="rgb(94.921875%, 94.921875%, 94.921875%)" fill-opacity="1" d="M 2968.730469 1621.628906 L 2544.121094 1621.398438 C 2542.71875 1621.363281 2541.410156 1622.089844 2540.699219 1623.296875 C 2539.980469 1624.503906 2539.980469 1626.003906 2540.679688 1627.214844 C 2541.390625 1628.425781 2542.699219 1629.160156 2544.101562 1629.136719 L 2968.710938 1629.367188 C 2970.109375 1629.398438 2971.421875 1628.664062 2972.128906 1627.457031 C 2972.839844 1626.246094 2972.839844 1624.746094 2972.128906 1623.535156 C 2971.421875 1622.328125 2970.109375 1621.597656 2968.710938 1621.628906 "/>
<path fill-rule="nonzero" fill="rgb(94.921875%, 94.921875%, 94.921875%)" fill-opacity="1" d="M 2968.859375 1692.058594 L 2604.71875 1691.949219 C 2603.429688 1691.929688 2602.230469 1692.605469 2601.570312 1693.71875 C 2600.921875 1694.835938 2600.910156 1696.210938 2601.558594 1697.328125 C 2602.210938 1698.445312 2603.410156 1699.128906 2604.699219 1699.117188 L 2968.839844 1699.226562 C 2970.128906 1699.25 2971.328125 1698.574219 2971.988281 1697.460938 C 2972.648438 1696.347656 2972.648438 1694.964844 2972.011719 1693.847656 C 2971.359375 1692.726562 2970.160156 1692.042969 2968.871094 1692.058594 "/>
<path fill-rule="nonzero" fill="rgb(94.921875%, 94.921875%, 94.921875%)" fill-opacity="1" d="M 2968.730469 1762.039062 L 2544.121094 1761.808594 C 2542.71875 1761.773438 2541.410156 1762.503906 2540.691406 1763.710938 C 2539.980469 1764.917969 2539.980469 1766.417969 2540.679688 1767.628906 C 2541.390625 1768.839844 2542.699219 1769.574219 2544.101562 1769.546875 L 2968.710938 1769.777344 C 2970.109375 1769.808594 2971.421875 1769.078125 2972.128906 1767.867188 C 2972.839844 1766.660156 2972.839844 1765.160156 2972.128906 1763.949219 C 2971.421875 1762.738281 2970.109375 1762.007812 2968.710938 1762.039062 "/>
<path fill-rule="nonzero" fill="rgb(94.921875%, 94.921875%, 94.921875%)" fill-opacity="1" d="M 2968.730469 1481.21875 L 2544.121094 1480.980469 C 2542.71875 1480.949219 2541.410156 1481.679688 2540.699219 1482.890625 C 2539.980469 1484.089844 2539.980469 1485.589844 2540.679688 1486.800781 C 2541.390625 1488.019531 2542.699219 1488.75 2544.101562 1488.71875 L 2968.710938 1488.949219 C 2970.109375 1488.980469 2971.421875 1488.25 2972.128906 1487.039062 C 2972.839844 1485.828125 2972.839844 1484.328125 2972.128906 1483.121094 C 2971.421875 1481.910156 2970.109375 1481.179688 2968.710938 1481.21875 "/>
<path fill-rule="nonzero" fill="rgb(94.921875%, 94.921875%, 94.921875%)" fill-opacity="1" d="M 2968.859375 1841.464844 L 2604.71875 1841.359375 C 2603.429688 1841.339844 2602.230469 1842.015625 2601.570312 1843.128906 C 2600.921875 1844.242188 2600.910156 1845.621094 2601.558594 1846.738281 C 2602.210938 1847.855469 2603.410156 1848.539062 2604.699219 1848.527344 L 2968.839844 1848.632812 C 2970.128906 1848.65625 2971.328125 1847.984375 2971.988281 1846.867188 C 2972.648438 1845.753906 2972.648438 1844.375 2972.011719 1843.253906 C 2971.359375 1842.136719 2970.160156 1841.449219 2968.871094 1841.464844 "/>
<path fill-rule="nonzero" fill="rgb(93.75%, 73.242188%, 18.041992%)" fill-opacity="1" d="M 2458.621094 1764.195312 L 2763.140625 1948.378906 L 3056.28125 1764.195312 C 3056.871094 1763.824219 3057.589844 1764.71875 3057.589844 1765.371094 L 3057.589844 2107.417969 C 3057.589844 2108.066406 3057.011719 2108.589844 3056.28125 2108.589844 L 2458.621094 2108.589844 C 2458.03125 2108.96875 2457.308594 2108.066406 2457.308594 2107.417969 L 2457.308594 1765.371094 C 2457.308594 1764.71875 2457.890625 1764.195312 2458.621094 1764.195312 "/>
<path fill-rule="nonzero" fill="rgb(50.193787%, 70.117188%, 100%)" fill-opacity="1" d="M 1349.011719 1108.398438 L 2487.269531 1108.398438 C 2541.710938 1108.398438 2585.539062 1151.191406 2585.539062 1204.339844 L 2585.539062 2011.855469 C 2585.539062 2065.007812 2541.710938 2107.800781 2487.269531 2107.800781 L 1349.011719 2107.800781 C 1294.570312 2107.800781 1250.75 2065.007812 1250.75 2011.855469 L 1250.75 1204.339844 C 1250.75 1151.191406 1294.570312 1108.398438 1349.011719 1108.398438 "/>
<path fill-rule="nonzero" fill="rgb(97.65625%, 97.65625%, 97.65625%)" fill-opacity="1" d="M 1360.101562 1216.851562 L 2476.179688 1216.851562 C 2529.558594 1216.851562 2572.53125 1231.820312 2572.53125 1287.550781 L 2572.53125 1992.058594 C 2572.53125 2047.792969 2529.558594 2092.664062 2476.179688 2092.664062 L 1360.101562 2092.664062 C 1306.71875 2092.664062 1263.75 2047.792969 1263.75 1992.058594 L 1263.75 1287.550781 C 1263.75 1231.820312 1306.71875 1216.851562 1360.101562 1216.851562 "/>
<path fill-rule="nonzero" fill="rgb(82.8125%, 55.271912%, 37.255859%)" fill-opacity="1" d="M 2226.671875 423.011719 L 1846.960938 423.589844 C 1757.679688 423.730469 1685.910156 495.179688 1686.050781 583.800781 L 1686.269531 724.421875 C 1686.410156 813.039062 1758.390625 884.269531 1847.671875 884.128906 L 1867.988281 947.378906 L 1967.058594 883.941406 L 2227.378906 883.539062 C 2316.660156 883.398438 2388.429688 811.949219 2388.289062 723.339844 L 2388.070312 582.710938 C 2387.941406 494.101562 2315.949219 422.871094 2226.671875 423.011719 "/>
<path fill-rule="nonzero" fill="rgb(93.75%, 73.242188%, 18.041992%)" fill-opacity="1" d="M 2208.730469 414.609375 L 1839.609375 415.179688 C 1752.828125 415.308594 1683.070312 485.289062 1683.199219 572.070312 L 1683.410156 709.789062 C 1683.550781 796.578125 1753.519531 866.339844 1840.308594 866.199219 L 1866.96875 941.910156 L 1956.371094 866.019531 L 2209.421875 865.628906 C 2296.210938 865.5 2365.96875 795.519531 2365.839844 708.738281 L 2365.621094 571.019531 C 2365.488281 484.230469 2295.511719 414.46875 2208.730469 414.609375 "/>
<path fill-rule="nonzero" fill="rgb(62.693787%, 17.259216%, 17.259216%)" fill-opacity="1" d="M 2381.441406 859.980469 L 2758.199219 858.5 C 2856.839844 858.109375 2936.648438 960.371094 2937.148438 1087.78125 C 2937.648438 1215.191406 2858.648438 1318.070312 2760.011719 1318.460938 L 2457.921875 1319.648438 L 2417.28125 1362.820312 L 2390.640625 1305.03125 C 2292.011719 1305.410156 2204.808594 1218.070312 2204.308594 1090.660156 C 2203.808594 963.261719 2282.808594 860.371094 2381.441406 859.980469 "/>
<path fill-rule="nonzero" fill="rgb(82.8125%, 37.255859%, 37.255859%)" fill-opacity="1" d="M 2405.140625 860.761719 L 2771.371094 859.308594 C 2867.25 858.941406 2944.828125 956.808594 2945.308594 1078.761719 C 2945.789062 1200.71875 2868.988281 1299.199219 2773.109375 1299.578125 L 2479.449219 1300.738281 L 2421.929688 1359.941406 L 2406.878906 1301.019531 C 2311 1301.398438 2233.421875 1203.519531 2232.941406 1081.570312 C 2232.460938 959.621094 2309.261719 861.128906 2405.140625 860.761719 "/>
<path fill-rule="nonzero" fill="rgb(82.8125%, 37.255859%, 37.255859%)" fill-opacity="1" d="M 1997.359375 1708.171875 L 1505.28125 1708.171875 C 1498.75 1708.171875 1493.488281 1712.777344 1493.488281 1718.503906 L 1493.488281 2004.34375 C 1493.488281 2010.066406 1498.75 2014.675781 1505.28125 2014.675781 L 1997.359375 2014.675781 C 2003.890625 2014.675781 2009.148438 2010.066406 2009.148438 2004.34375 L 2009.148438 1718.503906 C 2009.148438 1712.777344 2003.890625 1708.171875 1997.359375 1708.171875 "/>
<path fill-rule="nonzero" fill="rgb(96.09375%, 83.201599%, 47.459412%)" fill-opacity="1" d="M 2005.058594 1808.296875 L 1497.578125 1808.296875 C 1495.308594 1808.296875 1493.488281 1809.894531 1493.488281 1811.878906 L 1493.488281 1910.96875 C 1493.488281 1912.949219 1495.308594 1914.546875 1497.578125 1914.546875 L 2005.058594 1914.546875 C 2007.328125 1914.546875 2009.148438 1912.949219 2009.148438 1910.96875 L 2009.148438 1811.878906 C 2009.148438 1809.894531 2007.328125 1808.296875 2005.058594 1808.296875 "/>
<path fill-rule="nonzero" fill="rgb(33.325195%, 59.959412%, 100%)" fill-opacity="1" d="M 1862.75 1529.90625 L 2325.699219 1529.90625 C 2331.851562 1529.90625 2336.789062 1534.136719 2336.789062 1539.386719 L 2336.789062 1801.601562 C 2336.789062 1806.851562 2331.851562 1811.078125 2325.699219 1811.078125 L 1862.75 1811.078125 C 1856.609375 1811.078125 1851.660156 1806.851562 1851.660156 1801.601562 L 1851.660156 1539.386719 C 1851.660156 1534.136719 1856.609375 1529.90625 1862.75 1529.90625 "/>
<path fill="none" stroke-width="169.001" stroke-linecap="round" stroke-linejoin="round" stroke="rgb(33.325195%, 59.959412%, 100%)" stroke-opacity="1" stroke-miterlimit="4" d="M 18627.5 9713.4375 L 23256.992188 9713.4375 C 23318.515625 9713.4375 23367.890625 9671.132812 23367.890625 9618.632812 L 23367.890625 6996.484375 C 23367.890625 6943.984375 23318.515625 6901.71875 23256.992188 6901.71875 L 18627.5 6901.71875 C 18566.09375 6901.71875 18516.601562 6943.984375 18516.601562 6996.484375 L 18516.601562 9618.632812 C 18516.601562 9671.132812 18566.09375 9713.4375 18627.5 9713.4375 Z M 18627.5 9713.4375 " transform="matrix(0.1, 0, 0, -0.1, 0, 2501.25)"/>
<path fill-rule="nonzero" fill="rgb(92.576599%, 92.576599%, 92.576599%)" fill-opacity="1" d="M 1848.949219 1527.457031 L 1848.949219 1573.546875 L 2338.121094 1818.097656 C 2338.871094 1818.472656 2339.890625 1818.289062 2340.410156 1817.691406 L 2344.78125 1812.691406 L 2344.78125 1775.332031 L 1848.949219 1527.457031 "/>
<path fill-rule="nonzero" fill="rgb(92.576599%, 92.576599%, 92.576599%)" fill-opacity="1" d="M 2342.710938 1518.484375 C 2342.519531 1518.503906 2342.320312 1518.558594 2342.128906 1518.652344 L 1848.949219 1769.371094 L 1848.949219 1815.652344 L 2344.78125 1563.59375 L 2344.78125 1520.6875 L 2344.078125 1519.222656 C 2343.828125 1518.703125 2343.28125 1518.429688 2342.710938 1518.484375 "/>
<path fill-rule="nonzero" fill="rgb(82.8125%, 37.255859%, 37.255859%)" fill-opacity="1" d="M 2055.101562 1529.789062 C 2053.371094 1529.789062 2051.988281 1530.996094 2051.988281 1532.5 L 2051.988281 1632.414062 L 1855.171875 1632.414062 C 1853.640625 1632.414062 1852.398438 1633.496094 1852.398438 1634.835938 L 1852.398438 1701.78125 C 1852.398438 1703.121094 1853.640625 1704.195312 1855.171875 1704.195312 L 2051.988281 1704.195312 L 2051.988281 1808.871094 C 2051.988281 1810.378906 2053.371094 1811.589844 2055.101562 1811.589844 L 2141.140625 1811.589844 C 2142.859375 1811.589844 2144.25 1810.378906 2144.25 1808.871094 L 2144.25 1704.195312 L 2337.128906 1704.195312 C 2338.671875 1704.195312 2339.898438 1703.121094 2339.898438 1701.78125 L 2339.898438 1634.835938 C 2339.898438 1633.496094 2338.671875 1632.414062 2337.128906 1632.414062 L 2144.25 1632.414062 L 2144.25 1532.5 C 2144.25 1530.996094 2142.859375 1529.789062 2141.140625 1529.789062 L 2055.101562 1529.789062 "/>
<path fill="none" stroke-width="162.265" stroke-linecap="round" stroke-linejoin="round" stroke="rgb(92.576599%, 92.576599%, 92.576599%)" stroke-opacity="1" stroke-miterlimit="4" d="M 20551.015625 9714.609375 C 20533.710938 9714.609375 20519.882812 9702.539062 20519.882812 9687.5 L 20519.882812 8688.359375 L 18551.71875 8688.359375 C 18536.40625 8688.359375 18523.984375 8677.539062 18523.984375 8664.140625 L 18523.984375 7994.6875 C 18523.984375 7981.289062 18536.40625 7970.546875 18551.71875 7970.546875 L 20519.882812 7970.546875 L 20519.882812 6923.789062 C 20519.882812 6908.710938 20533.710938 6896.601562 20551.015625 6896.601562 L 21411.40625 6896.601562 C 21428.59375 6896.601562 21442.5 6908.710938 21442.5 6923.789062 L 21442.5 7970.546875 L 23371.289062 7970.546875 C 23386.71875 7970.546875 23398.984375 7981.289062 23398.984375 7994.6875 L 23398.984375 8664.140625 C 23398.984375 8677.539062 23386.71875 8688.359375 23371.289062 8688.359375 L 21442.5 8688.359375 L 21442.5 9687.5 C 21442.5 9702.539062 21428.59375 9714.609375 21411.40625 9714.609375 Z M 20551.015625 9714.609375 " transform="matrix(0.1, 0, 0, -0.1, 0, 2501.25)"/>
<path fill-rule="nonzero" fill="rgb(82.8125%, 37.255859%, 37.255859%)" fill-opacity="1" d="M 1654.230469 1292.640625 L 1501.738281 1292.640625 C 1495.179688 1292.640625 1489.898438 1296.921875 1489.898438 1302.230469 L 1489.898438 1567.636719 C 1489.898438 1572.953125 1495.179688 1577.230469 1501.738281 1577.230469 L 1654.230469 1577.230469 C 1660.789062 1577.230469 1666.078125 1572.953125 1666.078125 1567.636719 L 1666.078125 1302.230469 C 1666.078125 1296.921875 1660.789062 1292.640625 1654.230469 1292.640625 "/>
<path fill-rule="nonzero" fill="rgb(90.234375%, 90.234375%, 90.234375%)" fill-opacity="1" d="M 1830.410156 1292.640625 L 1677.921875 1292.640625 C 1671.359375 1292.640625 1666.078125 1296.921875 1666.078125 1302.230469 L 1666.078125 1567.636719 C 1666.078125 1572.953125 1671.359375 1577.230469 1677.921875 1577.230469 L 1830.410156 1577.230469 C 1836.96875 1577.230469 1842.261719 1572.953125 1842.261719 1567.636719 L 1842.261719 1302.230469 C 1842.261719 1296.921875 1836.96875 1292.640625 1830.410156 1292.640625 "/>
<path fill-rule="nonzero" fill="rgb(0%, 19.993591%, 50.193787%)" fill-opacity="1" d="M 2006.589844 1292.640625 L 1854.101562 1292.640625 C 1847.539062 1292.640625 1842.261719 1296.921875 1842.261719 1302.230469 L 1842.261719 1567.636719 C 1842.261719 1572.953125 1847.539062 1577.230469 1854.101562 1577.230469 L 2006.589844 1577.230469 C 2013.148438 1577.230469 2018.429688 1572.953125 2018.429688 1567.636719 L 2018.429688 1302.230469 C 2018.429688 1296.921875 2013.148438 1292.640625 2006.589844 1292.640625 "/>
<path fill-rule="nonzero" fill="rgb(100%, 100%, 100%)" fill-opacity="1" d="M 2372.539062 1118.828125 L 2372.539062 1027.171875 L 2391.039062 1027.171875 L 2391.039062 1063.25 L 2427.308594 1063.25 L 2427.308594 1027.171875 L 2445.808594 1027.171875 L 2445.808594 1118.828125 L 2427.308594 1118.828125 L 2427.308594 1078.75 L 2391.039062 1078.75 L 2391.039062 1118.828125 L 2372.539062 1118.828125 "/>
<path fill-rule="nonzero" fill="rgb(100%, 100%, 100%)" fill-opacity="1" d="M 2468.429688 1118.828125 L 2468.429688 1027.171875 L 2536.390625 1027.171875 L 2536.390625 1042.679688 L 2486.941406 1042.679688 L 2486.941406 1063 L 2532.949219 1063 L 2532.949219 1078.441406 L 2486.941406 1078.441406 L 2486.941406 1103.378906 L 2538.140625 1103.378906 L 2538.140625 1118.828125 L 2468.429688 1118.828125 "/>
<path fill-rule="nonzero" fill="rgb(100%, 100%, 100%)" fill-opacity="1" d="M 2557.890625 1118.828125 L 2557.890625 1027.921875 L 2576.390625 1027.921875 L 2576.390625 1103.378906 L 2622.410156 1103.378906 L 2622.410156 1118.828125 L 2557.890625 1118.828125 "/>
<path fill-rule="nonzero" fill="rgb(100%, 100%, 100%)" fill-opacity="1" d="M 2639.589844 1118.828125 L 2639.589844 1027.921875 L 2658.101562 1027.921875 L 2658.101562 1103.378906 L 2704.109375 1103.378906 L 2704.109375 1118.828125 L 2639.589844 1118.828125 "/>
<path fill-rule="nonzero" fill="rgb(100%, 100%, 100%)" fill-opacity="1" d="M 2717.039062 1073.558594 C 2717.039062 1059.558594 2717.039062 1059.558594 2721.230469 1050.058594 C 2724.359375 1043.050781 2724.359375 1043.050781 2729.730469 1037.488281 C 2735.171875 1031.921875 2735.171875 1031.921875 2741.609375 1029.238281 C 2750.179688 1025.609375 2750.179688 1025.609375 2761.371094 1025.609375 C 2781.621094 1025.609375 2781.621094 1025.609375 2793.75 1038.179688 C 2805.941406 1050.738281 2805.941406 1050.738281 2805.941406 1073.128906 C 2805.941406 1095.320312 2805.941406 1095.320312 2793.878906 1107.890625 C 2781.808594 1120.390625 2781.808594 1120.390625 2761.621094 1120.390625 C 2741.171875 1120.390625 2741.171875 1120.390625 2729.109375 1107.949219 C 2717.039062 1095.441406 2717.039062 1095.441406 2717.039062 1073.558594 Z M 2736.109375 1072.941406 C 2736.109375 1088.511719 2736.109375 1088.511719 2743.300781 1096.570312 C 2750.488281 1104.570312 2750.488281 1104.570312 2761.558594 1104.570312 C 2772.621094 1104.570312 2772.621094 1104.570312 2779.691406 1096.628906 C 2786.808594 1088.628906 2786.808594 1088.628906 2786.808594 1072.691406 C 2786.808594 1056.929688 2786.808594 1056.929688 2779.871094 1049.179688 C 2773 1041.429688 2773 1041.429688 2761.558594 1041.429688 C 2750.109375 1041.429688 2750.109375 1041.429688 2743.109375 1049.308594 C 2736.109375 1057.121094 2736.109375 1057.121094 2736.109375 1072.941406 "/>
<path fill-rule="nonzero" fill="rgb(100%, 100%, 100%)" fill-opacity="1" d="M 1708.390625 600.738281 L 1743.988281 600.738281 C 1754.558594 600.738281 1754.558594 600.738281 1759.71875 601.648438 C 1764.941406 602.511719 1764.941406 602.511719 1769.011719 605.300781 C 1773.140625 608.089844 1773.140625 608.089844 1775.878906 612.769531 C 1778.609375 617.390625 1778.609375 617.390625 1778.609375 623.160156 C 1778.609375 629.410156 1778.609375 629.410156 1775.210938 634.640625 C 1771.871094 639.859375 1771.871094 639.859375 1766.101562 642.46875 C 1774.230469 644.839844 1774.230469 644.839844 1778.609375 650.550781 C 1782.980469 656.261719 1782.980469 656.261719 1782.980469 663.96875 C 1782.980469 670.050781 1782.980469 670.050781 1780.128906 675.820312 C 1777.328125 681.53125 1777.328125 681.53125 1772.410156 684.988281 C 1767.550781 688.390625 1767.550781 688.390625 1760.390625 689.179688 C 1755.890625 689.671875 1755.890625 689.671875 1738.699219 689.789062 L 1708.390625 689.789062 Z M 1726.371094 615.558594 L 1726.371094 636.160156 L 1738.160156 636.160156 C 1748.660156 636.160156 1748.660156 636.160156 1751.210938 635.851562 C 1755.828125 635.300781 1755.828125 635.300781 1758.441406 632.691406 C 1761.109375 630.019531 1761.109375 630.019531 1761.109375 625.710938 C 1761.109375 621.578125 1761.109375 621.578125 1758.808594 619.03125 C 1756.558594 616.410156 1756.558594 616.410156 1752.058594 615.871094 C 1749.390625 615.558594 1749.390625 615.558594 1736.699219 615.558594 Z M 1726.371094 650.980469 L 1726.371094 674.789062 L 1743.011719 674.789062 C 1752.730469 674.789062 1752.730469 674.789062 1755.339844 674.238281 C 1759.351562 673.511719 1759.351562 673.511719 1761.839844 670.71875 C 1764.390625 667.859375 1764.390625 667.859375 1764.390625 663.121094 C 1764.390625 659.121094 1764.390625 659.121094 1762.449219 656.320312 C 1760.511719 653.53125 1760.511719 653.53125 1756.800781 652.25 C 1753.160156 650.980469 1753.160156 650.980469 1740.890625 650.980469 L 1726.371094 650.980469 "/>
<path fill-rule="nonzero" fill="rgb(100%, 100%, 100%)" fill-opacity="1" d="M 1797.910156 645.808594 C 1797.910156 632.210938 1797.910156 632.210938 1801.980469 622.96875 C 1805.019531 616.171875 1805.019531 616.171875 1810.238281 610.769531 C 1815.53125 605.359375 1815.53125 605.359375 1821.78125 602.75 C 1830.109375 599.21875 1830.109375 599.21875 1840.980469 599.21875 C 1860.660156 599.21875 1860.660156 599.21875 1872.441406 611.429688 C 1884.289062 623.640625 1884.289062 623.640625 1884.289062 645.390625 C 1884.289062 666.949219 1884.289062 666.949219 1872.558594 679.160156 C 1860.839844 691.308594 1860.839844 691.308594 1841.21875 691.308594 C 1821.359375 691.308594 1821.359375 691.308594 1809.640625 679.21875 C 1797.910156 667.070312 1797.910156 667.070312 1797.910156 645.808594 Z M 1816.441406 645.210938 C 1816.441406 660.328125 1816.441406 660.328125 1823.421875 668.171875 C 1830.410156 675.941406 1830.410156 675.941406 1841.160156 675.941406 C 1851.910156 675.941406 1851.910156 675.941406 1858.78125 668.230469 C 1865.699219 660.449219 1865.699219 660.449219 1865.699219 644.960938 C 1865.699219 629.660156 1865.699219 629.660156 1858.960938 622.121094 C 1852.28125 614.589844 1852.28125 614.589844 1841.160156 614.589844 C 1830.050781 614.589844 1830.050781 614.589844 1823.238281 622.25 C 1816.441406 629.839844 1816.441406 629.839844 1816.441406 645.210938 "/>
<path fill-rule="nonzero" fill="rgb(100%, 100%, 100%)" fill-opacity="1" d="M 1901.769531 689.789062 L 1901.769531 600.738281 L 1919.261719 600.738281 L 1955.710938 660.210938 L 1955.710938 600.738281 L 1972.410156 600.738281 L 1972.410156 689.789062 L 1954.371094 689.789062 L 1918.46875 631.71875 L 1918.46875 689.789062 L 1901.769531 689.789062 "/>
<path fill-rule="nonzero" fill="rgb(100%, 100%, 100%)" fill-opacity="1" d="M 2026.949219 600.738281 L 2044.859375 600.738281 L 2044.859375 657.109375 C 2044.859375 668.171875 2044.859375 668.171875 2042.921875 674.121094 C 2040.308594 681.890625 2040.308594 681.890625 2033.441406 686.628906 C 2026.578125 691.308594 2026.578125 691.308594 2015.339844 691.308594 C 2002.160156 691.308594 2002.160156 691.308594 1995.058594 683.960938 C 1987.949219 676.550781 1987.949219 676.550781 1987.890625 662.269531 L 2004.839844 660.328125 C 2005.140625 667.980469 2005.140625 667.980469 2007.078125 671.140625 C 2010 675.941406 2010 675.941406 2015.949219 675.941406 C 2021.960938 675.941406 2021.960938 675.941406 2024.460938 672.539062 C 2026.949219 669.078125 2026.949219 669.078125 2026.949219 658.261719 L 2026.949219 600.738281 "/>
<path fill-rule="nonzero" fill="rgb(100%, 100%, 100%)" fill-opacity="1" d="M 2063.738281 645.808594 C 2063.738281 632.210938 2063.738281 632.210938 2067.808594 622.96875 C 2070.851562 616.171875 2070.851562 616.171875 2076.070312 610.769531 C 2081.359375 605.359375 2081.359375 605.359375 2087.621094 602.75 C 2095.941406 599.21875 2095.941406 599.21875 2106.808594 599.21875 C 2126.488281 599.21875 2126.488281 599.21875 2138.269531 611.429688 C 2150.121094 623.640625 2150.121094 623.640625 2150.121094 645.390625 C 2150.121094 666.949219 2150.121094 666.949219 2138.390625 679.160156 C 2126.671875 691.308594 2126.671875 691.308594 2107.050781 691.308594 C 2087.191406 691.308594 2087.191406 691.308594 2075.46875 679.21875 C 2063.738281 667.070312 2063.738281 667.070312 2063.738281 645.808594 Z M 2082.269531 645.210938 C 2082.269531 660.328125 2082.269531 660.328125 2089.261719 668.171875 C 2096.238281 675.941406 2096.238281 675.941406 2106.988281 675.941406 C 2117.738281 675.941406 2117.738281 675.941406 2124.609375 668.230469 C 2131.53125 660.449219 2131.53125 660.449219 2131.53125 644.960938 C 2131.53125 629.660156 2131.53125 629.660156 2124.789062 622.121094 C 2118.109375 614.589844 2118.109375 614.589844 2106.988281 614.589844 C 2095.878906 614.589844 2095.878906 614.589844 2089.070312 622.25 C 2082.269531 629.839844 2082.269531 629.839844 2082.269531 645.210938 "/>
<path fill-rule="nonzero" fill="rgb(100%, 100%, 100%)" fill-opacity="1" d="M 2167.300781 600.738281 L 2185.28125 600.738281 L 2185.28125 648.96875 C 2185.28125 660.449219 2185.28125 660.449219 2185.941406 663.851562 C 2187.101562 669.320312 2187.101562 669.320312 2191.410156 672.660156 C 2195.78125 675.941406 2195.78125 675.941406 2203.320312 675.941406 C 2210.96875 675.941406 2210.96875 675.941406 2214.859375 672.839844 C 2218.738281 669.679688 2218.738281 669.679688 2219.53125 665.128906 C 2220.320312 660.570312 2220.320312 660.570312 2220.320312 650 L 2220.320312 600.738281 L 2238.300781 600.738281 L 2238.300781 647.511719 C 2238.300781 663.550781 2238.300781 663.550781 2236.839844 670.171875 C 2235.390625 676.789062 2235.390625 676.789062 2231.441406 681.351562 C 2227.550781 685.898438 2227.550781 685.898438 2220.988281 688.628906 C 2214.429688 691.308594 2214.429688 691.308594 2203.859375 691.308594 C 2191.109375 691.308594 2191.109375 691.308594 2184.488281 688.390625 C 2177.929688 685.421875 2177.929688 685.421875 2174.101562 680.738281 C 2170.269531 676 2170.269531 676 2169.058594 670.839844 C 2167.300781 663.179688 2167.300781 663.179688 2167.300781 648.238281 L 2167.300781 600.738281 "/>
<path fill-rule="nonzero" fill="rgb(100%, 100%, 100%)" fill-opacity="1" d="M 2260.710938 689.789062 L 2260.710938 600.738281 L 2298.550781 600.738281 C 2312.820312 600.738281 2312.820312 600.738281 2319.261719 603.171875 C 2325.761719 605.539062 2325.761719 605.539062 2329.648438 611.679688 C 2333.53125 617.808594 2333.53125 617.808594 2333.53125 625.710938 C 2333.53125 635.730469 2333.53125 635.730469 2327.640625 642.289062 C 2321.75 648.789062 2321.75 648.789062 2310.03125 650.488281 C 2315.859375 653.890625 2315.859375 653.890625 2319.621094 657.960938 C 2323.449219 662.03125 2323.449219 662.03125 2329.890625 672.421875 L 2340.761719 689.789062 L 2319.261719 689.789062 L 2306.261719 670.410156 C 2299.339844 660.03125 2299.339844 660.03125 2296.789062 657.351562 C 2294.230469 654.621094 2294.230469 654.621094 2291.378906 653.648438 C 2288.519531 652.621094 2288.519531 652.621094 2282.328125 652.621094 L 2278.679688 652.621094 L 2278.679688 689.789062 Z M 2278.679688 638.398438 L 2291.988281 638.398438 C 2304.921875 638.398438 2304.921875 638.398438 2308.140625 637.308594 C 2311.359375 636.21875 2311.359375 636.21875 2313.179688 633.539062 C 2315.011719 630.871094 2315.011719 630.871094 2315.011719 626.859375 C 2315.011719 622.371094 2315.011719 622.371094 2312.578125 619.628906 C 2310.210938 616.839844 2310.210938 616.839844 2305.839844 616.109375 C 2303.648438 615.808594 2303.648438 615.808594 2292.71875 615.808594 L 2278.679688 615.808594 L 2278.679688 638.398438 "/>
<path fill-rule="nonzero" fill="rgb(87.109375%, 52.929688%, 52.929688%)" fill-opacity="1" d="M 1322.398438 671.398438 C 1326.859375 679.21875 1329.628906 688.839844 1330.890625 698.691406 C 1332.148438 708.550781 1332.121094 718.011719 1332.121094 727.421875 C 1332.140625 765.058594 1331.648438 817.21875 1331.171875 870.238281 C 1331.179688 886.980469 1320.449219 886.429688 1320.78125 869.710938 C 1321.269531 816.679688 1321.75 764.558594 1321.730469 727.441406 C 1321.730469 718.160156 1321.621094 711.078125 1320.941406 705.789062 C 1320.269531 700.5 1319.230469 696.378906 1316.199219 691.078125 C 1310.160156 680.480469 1313.480469 655.769531 1322.398438 671.398438 "/>
<path fill-rule="nonzero" fill="rgb(87.109375%, 52.929688%, 52.929688%)" fill-opacity="1" d="M 1301.628906 889.640625 C 1301.640625 899.738281 1313.070312 907.921875 1327.148438 907.910156 C 1333.910156 907.898438 1340.390625 905.96875 1345.171875 902.53125 C 1349.941406 899.101562 1352.621094 894.441406 1352.621094 889.589844 C 1352.609375 884.738281 1349.921875 880.089844 1345.128906 876.660156 C 1340.351562 873.230469 1333.859375 871.308594 1327.101562 871.320312 C 1320.339844 871.320312 1313.859375 873.261719 1309.078125 876.691406 C 1304.308594 880.128906 1301.628906 884.789062 1301.628906 889.640625 "/>
<path fill-rule="nonzero" fill="rgb(87.109375%, 52.929688%, 52.929688%)" fill-opacity="1" d="M 1348.289062 923.761719 C 1358.949219 947.449219 1371.75 991.101562 1368.28125 1016.828125 C 1364.820312 1042.558594 1345.101562 1050.351562 1328.441406 1050.230469 C 1311.789062 1050.109375 1298.199219 1042.078125 1293.53125 1022.910156 C 1288.859375 1003.730469 1293.109375 973.410156 1299.101562 949.839844 C 1305.089844 926.28125 1312.820312 909.46875 1320.949219 902.921875 C 1329.078125 896.371094 1337.621094 900.078125 1348.289062 923.761719 "/>
<path fill-rule="nonzero" fill="rgb(0%, 19.993591%, 50.193787%)" fill-opacity="1" d="M 884.191406 414.46875 L 366.941406 653.328125 L 498.703125 744.898438 L 499.699219 919.460938 C 499.675781 919.71875 499.679688 919.980469 499.667969 920.238281 L 499.601562 920.238281 C 499.097656 930.171875 500.820312 936.191406 515.425781 943.78125 C 717.9375 793.480469 1288.980469 882.269531 1245.179688 943.820312 C 1256.648438 937.160156 1261.949219 929.019531 1261.578125 920.898438 L 1261.609375 920.910156 L 1260.449219 742.089844 L 1396.820312 653.328125 L 884.191406 414.46875 "/>
<path fill-rule="nonzero" fill="rgb(50.193787%, 70.117188%, 100%)" fill-opacity="1" d="M 874.601562 1692.710938 L 1067.128906 1691.800781 L 1067.28125 938.371094 L 874.75 941.128906 L 874.601562 1692.710938 "/>
<path fill-rule="nonzero" fill="rgb(100%, 100%, 100%)" fill-opacity="1" d="M 981.59375 998.308594 C 972.984375 998.109375 964.03125 999.199219 955.210938 1001.71875 C 920.503906 1011.628906 899.3125 1039.671875 907.445312 1065.511719 C 907.480469 1065.949219 907.570312 1066.390625 907.722656 1066.820312 C 917.007812 1093.011719 954.351562 1105.890625 989.640625 1095.808594 C 1024.929688 1085.738281 1046.421875 1056.890625 1037.140625 1030.699219 C 1030.179688 1011.058594 1007.421875 998.910156 981.589844 998.308594 Z M 980.503906 1011.078125 C 999.695312 1011.328125 1015.761719 1020.199219 1020.839844 1034.53125 C 1027.621094 1053.628906 1011.480469 1075.960938 984.285156 1083.730469 C 957.097656 1091.488281 930.78125 1082.101562 924.007812 1063 C 917.238281 1043.898438 933.386719 1021.570312 960.574219 1013.808594 C 967.371094 1011.859375 974.109375 1010.988281 980.503906 1011.078125 "/>
<path fill-rule="nonzero" fill="rgb(100%, 100%, 100%)" fill-opacity="1" d="M 1016.730469 1471.890625 C 1020.371094 1470.46875 1023.578125 1467.011719 1024.378906 1463.660156 C 1025.179688 1460.308594 1023.339844 1458.019531 1019.988281 1458.199219 L 928.53125 1462.03125 C 926.050781 1462.078125 923.121094 1463.53125 920.882812 1465.828125 C 918.640625 1468.121094 917.441406 1470.898438 917.746094 1473.089844 C 918.050781 1475.28125 919.808594 1476.53125 922.34375 1476.359375 L 1013.800781 1472.539062 C 1014.71875 1472.5 1015.710938 1472.28125 1016.71875 1471.878906 "/>
<path fill-rule="nonzero" fill="rgb(100%, 100%, 100%)" fill-opacity="1" d="M 1016.839844 1436.300781 C 1018.058594 1435.820312 1019.128906 1434.671875 1019.398438 1433.550781 C 1019.660156 1432.429688 1019.039062 1431.671875 1017.929688 1431.730469 L 926.472656 1435.558594 C 925.640625 1435.558594 924.652344 1436.039062 923.890625 1436.808594 C 923.132812 1437.589844 922.726562 1438.519531 922.835938 1439.261719 C 922.945312 1440 923.550781 1440.410156 924.414062 1440.328125 L 1015.859375 1436.511719 C 1016.171875 1436.5 1016.5 1436.429688 1016.839844 1436.300781 "/>
<path fill-rule="nonzero" fill="rgb(100%, 100%, 100%)" fill-opacity="1" d="M 1016.851562 1424.761719 C 1018.058594 1424.28125 1019.128906 1423.128906 1019.398438 1422.011719 C 1019.660156 1420.890625 1019.050781 1420.128906 1017.929688 1420.191406 L 926.476562 1424.019531 C 925.648438 1424.03125 924.664062 1424.511719 923.910156 1425.28125 C 923.15625 1426.050781 922.753906 1426.980469 922.855469 1427.710938 C 922.964844 1428.449219 923.558594 1428.859375 924.414062 1428.800781 L 1015.871094 1424.96875 C 1016.171875 1424.960938 1016.5 1424.890625 1016.839844 1424.761719 "/>
<path fill-rule="nonzero" fill="rgb(100%, 100%, 100%)" fill-opacity="1" d="M 1016.851562 1413.21875 C 1018.058594 1412.738281 1019.128906 1411.589844 1019.398438 1410.46875 C 1019.671875 1409.351562 1019.050781 1408.589844 1017.929688 1408.648438 L 926.480469 1412.480469 C 925.648438 1412.480469 924.664062 1412.96875 923.90625 1413.738281 C 923.152344 1414.511719 922.746094 1415.441406 922.855469 1416.179688 C 922.960938 1416.910156 923.5625 1417.328125 924.421875 1417.261719 L 1015.871094 1413.429688 C 1016.179688 1413.421875 1016.511719 1413.351562 1016.851562 1413.21875 "/>
<path fill-rule="nonzero" fill="rgb(100%, 100%, 100%)" fill-opacity="1" d="M 1017.109375 1362.101562 C 1018.28125 1361.550781 1019.238281 1360.410156 1019.441406 1359.351562 C 1019.640625 1358.289062 1019.019531 1357.589844 1017.941406 1357.648438 L 926.488281 1361.480469 C 925.660156 1361.46875 924.664062 1361.949219 923.902344 1362.71875 C 923.136719 1363.5 922.730469 1364.441406 922.839844 1365.179688 C 922.949219 1365.921875 923.5625 1366.328125 924.429688 1366.25 L 1015.878906 1362.421875 C 1016.269531 1362.421875 1016.691406 1362.308594 1017.109375 1362.109375 "/>
<path fill-rule="nonzero" fill="rgb(100%, 100%, 100%)" fill-opacity="1" d="M 1017.121094 1350.558594 C 1018.28125 1350.011719 1019.25 1348.871094 1019.441406 1347.808594 C 1019.640625 1346.75 1019.019531 1346.050781 1017.949219 1346.109375 L 926.492188 1349.941406 C 925.664062 1349.941406 924.675781 1350.421875 923.921875 1351.191406 C 923.164062 1351.960938 922.761719 1352.898438 922.867188 1353.628906 C 922.972656 1354.371094 923.574219 1354.78125 924.429688 1354.710938 L 1015.878906 1350.878906 C 1016.269531 1350.878906 1016.691406 1350.769531 1017.121094 1350.558594 "/>
<path fill-rule="nonzero" fill="rgb(100%, 100%, 100%)" fill-opacity="1" d="M 1017.121094 1339.03125 C 1018.28125 1338.46875 1019.25 1337.328125 1019.441406 1336.269531 C 1019.640625 1335.210938 1019.019531 1334.511719 1017.949219 1334.570312 L 926.492188 1338.398438 C 925.664062 1338.398438 924.671875 1338.878906 923.910156 1339.648438 C 923.148438 1340.421875 922.742188 1341.359375 922.851562 1342.101562 C 922.960938 1342.839844 923.566406 1343.25 924.433594 1343.171875 L 1015.878906 1339.351562 C 1016.269531 1339.328125 1016.691406 1339.21875 1017.109375 1339.019531 "/>
<path fill-rule="nonzero" fill="rgb(0%, 19.993591%, 50.193787%)" fill-opacity="1" d="M 2776.488281 2019.488281 C 2776.378906 2019.921875 2776.339844 2020.386719 2776.320312 2020.832031 L 2776.238281 2027.804688 L 2775.699219 2095.675781 C 2775.609375 2105.316406 2799.808594 2113.019531 2829.941406 2112.949219 L 2835.941406 2112.949219 C 2838.960938 2112.914062 2841.929688 2112.878906 2844.820312 2112.695312 L 2844.820312 2112.929688 L 2959.558594 2112.660156 L 3189.058594 2112.121094 L 3303.800781 2111.851562 L 3418.550781 2111.585938 L 3533.300781 2111.316406 L 3534.171875 2001.675781 L 3419.421875 2001.941406 L 3304.671875 2002.210938 L 3189.929688 2002.480469 L 3075.179688 2002.75 L 2960.441406 2003.015625 L 2845.691406 2003.289062 L 2845.691406 2003.519531 C 2842.800781 2003.375 2839.839844 2003.300781 2836.820312 2003.308594 L 2830.808594 2003.308594 C 2802.101562 2003.378906 2778.671875 2010.480469 2776.46875 2019.492188 "/>
<path fill-rule="nonzero" fill="rgb(91.40625%, 86.71875%, 68.554688%)" fill-opacity="1" d="M 3533.308594 2111.300781 L 3534.179688 2001.65625 L 3698.601562 2056.09375 Z M 3533.308594 2111.300781 "/>
<path fill-rule="nonzero" fill="rgb(4.315186%, 9.008789%, 15.696716%)" fill-opacity="1" d="M 3698.601562 2056.09375 L 3665.199219 2045.167969 L 3665.03125 2067.203125 Z M 3698.601562 2056.09375 "/>
<path fill-rule="nonzero" fill="rgb(4.315186%, 9.008789%, 15.696716%)" fill-opacity="1" d="M 3698.601562 2056.09375 L 3665.199219 2045.167969 L 3665.601562 2050.738281 L 3698.601562 2056.09375 "/>
<path fill-rule="nonzero" fill="rgb(4.315186%, 9.008789%, 15.696716%)" fill-opacity="1" d="M 3698.601562 2055.871094 L 3665.601562 2050.738281 L 3665.308594 2061.4375 Z M 3698.601562 2055.871094 "/>
<path fill="none" stroke-width="39.7029" stroke-linecap="butt" stroke-linejoin="miter" stroke="rgb(0%, 13.330078%, 33.325195%)" stroke-opacity="1" stroke-dasharray="158.812 317.623" stroke-miterlimit="4" d="M 30659.6875 5011.132812 C 31875.585938 5192.890625 32827.5 5524.765625 33444.21875 6040.507812 C 34060.898438 6556.25 34342.382812 7255.820312 34246.71875 7681.757812 C 34151.015625 8107.695312 33678.085938 8260.039062 33332.617188 8214.960938 C 32987.1875 8169.882812 32768.984375 7927.421875 32703.28125 7692.1875 C 32637.5 7456.953125 32724.101562 7228.867188 32946.015625 7043.242188 C 33167.890625 6857.578125 33525.195312 6714.375 34022.695312 6746.171875 C 34520.195312 6777.929688 35157.8125 6984.648438 35746.914062 7574.375 C 36335.898438 8164.140625 36894.804688 9140.390625 36745.3125 10190.3125 C 36072.890625 14911.796875 25323.59375 12824.6875 32382.382812 19584.21875 " transform="matrix(0.1, 0, 0, -0.1, 0, 2501.25)"/>
<path fill-rule="nonzero" fill="rgb(16.479492%, 49.804688%, 100%)" fill-opacity="1" d="M 3124.21875 661.589844 L 3190.039062 610.199219 L 3146.480469 565.320312 L 3121.460938 578.328125 L 3124.21875 661.589844 "/>
<path fill-rule="nonzero" fill="rgb(66.601562%, 80.076599%, 100%)" fill-opacity="1" d="M 3380.351562 414.878906 L 3252.011719 700.800781 L 3044.570312 524.019531 Z M 3380.351562 414.878906 "/>
<path fill-rule="nonzero" fill="rgb(50.193787%, 70.117188%, 100%)" fill-opacity="1" d="M 3189.429688 545.558594 L 3252.011719 700.800781 L 3044.570312 524.019531 Z M 3189.429688 545.558594 "/>
<path fill-rule="nonzero" fill="rgb(33.325195%, 59.959412%, 100%)" fill-opacity="1" d="M 3380.351562 414.878906 L 3093.929688 559.050781 L 3124.21875 661.589844 L 3137.171875 602.339844 L 3380.351562 414.878906 "/>
</svg>
